<?xml version="1.0" standalone="no"?>
<!DOCTYPE svg PUBLIC "-//W3C//DTD SVG 20010904//EN"
 "http://www.w3.org/TR/2001/REC-SVG-20010904/DTD/svg10.dtd">
<svg version="1.0" xmlns="http://www.w3.org/2000/svg"
 width="300.000000pt" height="300.000000pt" viewBox="0 0 300.000000 300.000000"
 preserveAspectRatio="xMidYMid meet">
<metadata>
Created by potrace 1.10, written by Peter Selinger 2001-2011
</metadata>
<g transform="translate(0.000000,300.000000) scale(0.100000,-0.100000)"
fill="#000000" stroke="none">
<path d="M360 2311 c0 -11 5 -23 10 -26 16 -10 12 -25 -5 -19 -11 5 -13 2 -9
-10 3 -9 12 -16 20 -16 17 0 18 41 2 59 -10 11 -10 13 0 7 7 -4 12 -1 12 8 0
9 -7 16 -15 16 -8 0 -15 -9 -15 -19z"/>
<path d="M402 2287 c3 -41 4 -42 38 -42 34 0 35 1 35 40 0 39 -1 40 -38 42
l-38 2 3 -42z m38 -2 c0 -16 -6 -25 -15 -25 -8 0 -15 5 -15 10 0 6 5 10 11 10
8 0 8 5 -1 15 -10 12 -10 15 4 15 10 0 16 -9 16 -25z"/>
<path d="M511 2288 c-1 -37 3 -48 14 -48 16 0 18 9 15 48 -1 12 3 22 9 22 6 0
11 -17 11 -37 0 -46 15 -33 23 20 6 36 5 37 -24 35 -26 -2 -29 -6 -30 -38 l-2
-35 -7 40 -7 40 -2 -47z"/>
<path d="M610 2285 c0 -28 4 -44 10 -40 6 3 10 13 10 21 0 8 5 14 11 14 18 0
5 45 -13 48 -15 3 -18 -4 -18 -43z"/>
<path d="M658 2289 c-2 -28 1 -43 10 -46 19 -8 29 7 12 18 -13 7 -13 10 -1 18
11 7 11 10 0 15 -11 5 -11 7 -1 12 16 8 15 24 -2 24 -9 0 -15 -14 -18 -41z"/>
<path d="M701 2283 c1 -39 3 -43 9 -23 5 17 8 19 9 8 1 -10 5 -18 10 -18 5 0
16 -3 25 -6 25 -9 31 24 10 48 -18 20 -18 21 -1 15 12 -5 17 -3 15 5 -7 19
-27 21 -34 3 -4 -9 1 -24 11 -35 10 -11 14 -20 9 -20 -18 0 -32 16 -35 39 -2
14 -10 26 -16 29 -9 2 -13 -10 -12 -45z"/>
<path d="M791 2283 c1 -26 4 -38 6 -25 2 12 9 22 14 22 15 0 7 43 -8 48 -9 3
-13 -10 -12 -45z"/>
<path d="M854 2315 c-3 -7 -4 -26 -2 -42 2 -21 8 -27 23 -26 11 2 34 3 51 4
29 2 30 4 25 38 -8 44 -24 43 -32 -1 l-6 -33 -2 35 c-1 30 -5 35 -27 36 -14 1
-28 -4 -30 -11z m46 -30 c0 -14 -7 -21 -20 -22 -15 -1 -20 4 -20 22 0 18 5 23
20 22 13 -1 20 -8 20 -22z"/>
<path d="M964 2314 c3 -9 6 -30 6 -46 0 -42 6 -33 13 20 4 33 2 42 -10 42 -10
0 -13 -6 -9 -16z"/>
<path d="M1024 2315 c-4 -9 -2 -21 5 -28 14 -14 14 -30 0 -21 -7 4 -10 1 -7
-6 7 -21 27 -24 34 -5 4 9 -1 24 -12 36 -17 19 -17 20 0 13 13 -5 17 -3 14 6
-7 21 -27 24 -34 5z"/>
<path d="M1084 2290 c1 -33 5 -45 16 -45 11 0 15 12 16 45 1 39 1 40 -3 8 -2
-21 -8 -38 -13 -38 -5 0 -11 17 -13 38 -4 32 -4 31 -3 -8z"/>
<path d="M1131 2283 c1 -39 3 -43 9 -23 5 17 8 19 9 8 2 -36 21 -17 20 20 0
30 -2 33 -9 17 -7 -16 -9 -17 -9 -3 -1 9 -5 20 -11 23 -6 4 -10 -12 -9 -42z"/>
<path d="M1180 2285 c0 -33 4 -45 13 -42 7 2 12 20 12 42 0 22 -5 40 -12 43
-9 2 -13 -10 -13 -43z"/>
<path d="M1220 2290 c0 -27 5 -43 15 -47 19 -7 34 5 19 15 -13 9 -16 52 -3 52
5 0 9 5 9 10 0 6 -9 10 -20 10 -17 0 -20 -7 -20 -40z"/>
<path d="M1284 2317 c-10 -27 0 -72 16 -72 11 0 15 11 15 39 0 40 -20 61 -31
33z"/>
<path d="M1330 2290 c0 -30 3 -40 9 -31 7 11 10 10 15 -5 3 -10 3 -1 0 21 -8
58 -24 68 -24 15z"/>
<path d="M1361 2313 c1 -10 5 -31 9 -48 7 -27 8 -25 9 18 0 26 -3 47 -9 47 -5
0 -9 -8 -9 -17z"/>
<path d="M1391 2285 l1 -50 9 39 c6 26 6 43 -1 50 -7 7 -10 -6 -9 -39z"/>
<path d="M1417 2296 c-5 -21 -6 -41 -3 -44 12 -11 17 7 14 44 l-3 39 -8 -39z"/>
<path d="M1460 2311 c0 -11 5 -23 10 -26 6 -3 10 -11 10 -16 0 -6 -4 -7 -10
-4 -5 3 -10 -1 -10 -9 0 -20 26 -21 33 -2 3 7 -2 24 -10 37 -9 12 -11 19 -5
15 7 -4 12 -1 12 8 0 9 -7 16 -15 16 -8 0 -15 -9 -15 -19z"/>
<path d="M1543 2313 c-3 -8 -1 -19 6 -26 14 -14 15 -30 1 -22 -5 3 -10 2 -10
-4 0 -16 21 -24 32 -13 8 8 6 18 -5 36 -16 24 -16 25 3 23 16 -1 20 -9 20 -36
0 -41 16 -31 23 14 l4 30 2 -33 c0 -19 7 -35 16 -39 22 -8 33 6 15 18 -13 7
-13 10 -1 18 11 7 11 10 0 15 -11 5 -11 7 -1 12 27 13 9 22 -44 22 -39 -1 -57
-5 -61 -15z"/>
<path d="M1680 2290 c0 -22 5 -40 10 -40 6 0 10 6 11 13 0 6 4 3 9 -8 6 -15 9
-7 9 30 0 37 -3 45 -9 30 -7 -17 -9 -17 -9 -2 -2 36 -21 15 -21 -23z"/>
<path d="M1740 2316 c0 -7 -3 -29 -6 -47 -4 -26 -3 -30 5 -19 10 13 12 13 21
0 8 -13 10 -13 10 1 0 32 -13 79 -21 79 -5 0 -9 -6 -9 -14z"/>
<path d="M1774 2314 c3 -8 6 -27 6 -40 0 -36 20 -29 21 9 l2 32 6 -35 c9 -54
36 -47 37 10 l2 45 -8 -40 -7 -40 -2 35 c-1 32 -4 36 -32 38 -25 2 -30 -1 -25
-14z"/>
<path d="M1864 2315 c-4 -9 -2 -21 5 -28 14 -14 14 -30 0 -21 -7 4 -10 1 -7
-6 7 -21 27 -24 34 -5 4 9 -1 24 -12 36 -17 19 -17 20 0 13 13 -5 17 -3 14 6
-7 21 -27 24 -34 5z"/>
<path d="M1920 2285 c0 -33 4 -45 15 -45 18 0 20 16 3 24 -10 5 -10 7 0 12 10
5 10 9 1 20 -8 10 -8 14 0 14 6 0 11 5 11 10 0 6 -7 10 -15 10 -11 0 -15 -12
-15 -45z"/>
<path d="M1960 2291 c0 -23 5 -41 10 -41 10 0 14 20 11 50 -2 13 -1 13 9 0 9
-13 11 -12 8 5 -2 11 -11 21 -21 23 -14 3 -17 -4 -17 -37z"/>
<path d="M2011 2283 c1 -39 3 -43 9 -23 5 14 8 18 9 9 1 -19 41 -33 54 -20 5
5 7 24 5 42 -4 46 -31 46 -39 -1 l-6 -35 -4 34 c-7 56 -29 51 -28 -6z"/>
<path d="M2101 2283 c1 -39 3 -43 9 -23 5 16 8 19 9 8 1 -9 5 -20 11 -23 6 -4
9 10 7 37 -1 32 -7 44 -19 46 -15 3 -18 -4 -17 -45z"/>
<path d="M2164 2315 c-4 -9 2 -25 12 -37 17 -19 17 -21 2 -15 -20 7 -25 -8 -7
-19 20 -12 35 14 21 36 -15 25 -15 33 -1 24 7 -4 10 -1 7 6 -7 21 -27 24 -34
5z"/>
<path d="M2234 2314 c3 -9 6 -30 6 -46 0 -42 6 -33 13 20 4 33 2 42 -10 42
-10 0 -13 -6 -9 -16z"/>
<path d="M2286 2298 c9 -50 13 -60 24 -53 5 3 9 25 9 48 -1 40 -2 40 -9 12
l-8 -30 -1 28 c0 15 -5 27 -11 27 -5 0 -7 -14 -4 -32z"/>
<path d="M2334 2317 c-10 -27 0 -72 16 -72 11 0 15 11 15 39 0 40 -20 61 -31
33z"/>
<path d="M2382 2288 c-2 -37 2 -48 13 -48 8 0 15 5 15 10 0 6 -4 10 -9 10 -6
0 -12 17 -14 38 -3 34 -4 33 -5 -10z"/>
<path d="M2410 2298 c0 -18 4 -39 9 -47 15 -24 31 -1 30 42 l-2 42 -7 -40 -7
-40 -2 38 c-1 45 -21 50 -21 5z"/>
<path d="M2460 2283 c0 -27 4 -42 10 -38 6 4 8 10 5 15 -3 5 1 12 8 17 8 4 17
15 20 23 3 8 6 1 6 -17 1 -41 21 -55 21 -14 0 16 3 36 6 45 4 12 -3 15 -35 14
l-41 0 0 -45z"/>
<path d="M2546 2299 c-3 -17 -6 -39 -6 -48 0 -14 2 -14 10 -1 9 13 11 13 20 0
8 -13 10 -13 10 1 0 30 -12 79 -20 79 -4 0 -10 -14 -14 -31z"/>
<path d="M2584 2314 c3 -9 6 -29 6 -45 0 -17 4 -28 10 -24 5 3 7 19 3 35 -3
19 -1 30 6 30 6 0 11 -15 11 -34 l0 -35 50 2 50 2 0 43 c0 23 -4 42 -10 42 -5
0 -10 -7 -10 -15 0 -8 -4 -15 -10 -15 -5 0 -10 6 -10 13 0 9 -17 13 -51 14
-42 2 -50 0 -45 -13z"/>
<path d="M410 2206 c0 -7 -3 -29 -7 -47 -5 -30 -4 -32 9 -22 8 7 18 10 21 6 9
-8 9 24 1 55 -7 24 -24 30 -24 8z"/>
<path d="M455 2212 c-10 -10 -5 -71 7 -78 6 -4 14 -2 16 5 3 9 7 9 18 1 16
-14 34 -5 34 18 0 15 -2 15 -10 2 -8 -12 -10 -9 -10 13 0 18 4 26 11 21 7 -4
10 -1 7 7 -4 13 -62 22 -73 11z m35 -37 c0 -7 -7 -15 -15 -19 -11 -4 -15 1
-15 19 0 18 4 23 15 19 8 -4 15 -12 15 -19z"/>
<path d="M544 2180 c0 -25 6 -45 11 -45 6 0 11 20 11 45 l2 45 -7 -40 -7 -40
-6 40 -5 40 1 -45z"/>
<path d="M584 2205 c-4 -9 2 -25 12 -37 18 -20 18 -21 1 -15 -13 5 -17 3 -14
-5 2 -7 13 -12 23 -10 10 1 27 3 37 4 18 2 21 29 7 63 -8 21 -15 12 -22 -29
-3 -17 -5 -16 -23 5 -18 20 -18 22 -2 16 12 -5 17 -3 15 5 -7 19 -27 21 -34 3z"/>
<path d="M671 2175 l1 -50 9 39 c6 26 6 43 -1 50 -7 7 -10 -6 -9 -39z"/>
<path d="M695 2184 c-4 -22 -2 -41 4 -47 8 -8 11 3 11 36 0 56 -5 60 -15 11z"/>
<path d="M724 2204 c3 -9 6 -30 6 -46 0 -42 6 -33 13 20 4 33 2 42 -10 42 -10
0 -13 -6 -9 -16z"/>
<path d="M782 2178 c2 -30 7 -43 18 -43 11 0 15 12 16 45 1 39 1 40 -3 8 -2
-21 -9 -38 -15 -38 -6 0 -8 13 -6 30 3 17 1 33 -4 36 -5 3 -8 -14 -6 -38z"/>
<path d="M831 2180 c0 -25 3 -39 6 -31 5 11 7 11 15 0 6 -9 7 -2 3 21 -11 54
-25 60 -24 10z"/>
<path d="M861 2198 c1 -13 5 -34 9 -48 7 -20 8 -16 9 23 1 26 -3 47 -9 47 -5
0 -10 -10 -9 -22z"/>
<path d="M910 2175 c0 -43 11 -58 25 -35 5 8 11 7 20 0 21 -17 35 -3 35 35 0
39 -14 52 -35 35 -11 -9 -15 -9 -15 -1 0 6 -7 11 -15 11 -11 0 -15 -12 -15
-45z"/>
<path d="M1002 2178 c-2 -37 2 -48 13 -48 8 0 15 5 15 10 0 6 -4 10 -9 10 -6
0 -12 17 -14 38 -3 34 -4 33 -5 -10z"/>
<path d="M1042 2178 c4 -59 28 -63 28 -4 0 35 -4 46 -16 46 -12 0 -14 -9 -12
-42z"/>
<path d="M1087 2214 c-11 -11 -8 -74 3 -74 6 0 10 8 11 18 1 11 4 9 9 -8 7
-20 8 -16 7 19 -2 42 -14 60 -30 45z"/>
<path d="M1130 2175 c0 -33 4 -45 15 -45 18 0 20 16 3 23 -10 4 -10 8 1 15 11
8 11 11 0 16 -11 5 -11 7 -1 12 17 8 15 24 -3 24 -11 0 -15 -12 -15 -45z"/>
<path d="M1171 2178 c0 -33 2 -38 9 -23 12 28 12 65 0 65 -5 0 -10 -19 -9 -42z"/>
<path d="M1207 2213 c-3 -5 -7 -21 -9 -38 -3 -16 -3 -23 0 -15 4 12 6 11 13
-5 6 -15 8 -9 8 23 1 40 -3 51 -12 35z"/>
<path d="M1234 2207 c-11 -29 0 -72 19 -75 16 -3 18 2 15 39 -3 43 -23 64 -34
36z"/>
<path d="M1284 2180 c1 -52 18 -57 27 -8 l6 33 2 -33 c0 -19 7 -35 16 -39 19
-7 34 5 19 15 -13 9 -16 52 -3 52 5 0 9 4 9 10 0 5 -13 8 -30 7 -27 -2 -30 -6
-31 -37 l-2 -35 -7 40 -8 40 2 -45z"/>
<path d="M1382 2178 c2 -35 7 -43 23 -43 11 -1 23 4 28 10 4 6 10 5 17 -5 8
-13 10 -13 10 1 0 30 -12 79 -20 79 -4 0 -11 -16 -14 -35 -4 -19 -11 -35 -16
-35 -6 0 -10 16 -10 35 0 19 -5 35 -11 35 -6 0 -9 -17 -7 -42z"/>
<path d="M1474 2180 c0 -25 6 -45 11 -45 6 0 11 20 11 45 l2 45 -7 -40 -7 -40
-6 40 -5 40 1 -45z"/>
<path d="M1517 2214 c-4 -4 -7 -22 -7 -41 0 -27 4 -33 21 -33 17 0 20 5 17 37
-3 35 -17 51 -31 37z"/>
<path d="M1566 2198 c-10 -40 -7 -58 9 -52 8 4 15 1 15 -5 0 -16 28 -2 33 17
3 12 5 9 6 -6 0 -13 5 -21 9 -18 5 3 7 19 4 36 -2 18 0 30 7 30 6 0 11 -13 11
-30 0 -40 18 -38 23 3 l4 32 1 -32 c3 -46 22 -41 22 5 0 33 -3 38 -26 40 -14
1 -34 -3 -45 -8 -13 -8 -19 -7 -19 0 0 6 -4 9 -8 6 -5 -3 -7 -19 -4 -37 3 -22
1 -30 -7 -25 -6 4 -11 20 -11 37 0 34 -15 39 -24 7z"/>
<path d="M1724 2180 c0 -25 6 -45 11 -45 6 0 11 20 11 45 l2 45 -7 -40 -7 -40
-6 40 -5 40 1 -45z"/>
<path d="M1767 2214 c-4 -4 -7 -23 -6 -43 0 -29 2 -32 9 -16 7 17 9 17 9 3 1
-11 9 -18 21 -18 11 0 20 -5 20 -12 0 -9 3 -8 13 1 10 11 10 14 0 18 -7 3 -13
18 -13 33 0 37 -16 47 -26 18 l-8 -23 -5 23 c-3 13 -9 20 -14 16z"/>
<path d="M1864 2204 c3 -8 6 -29 6 -45 0 -40 20 -27 21 14 l2 32 6 -35 c9 -51
36 -47 36 5 0 39 -1 40 -39 43 -32 2 -37 0 -32 -14z"/>
<path d="M1954 2204 c3 -9 6 -30 6 -46 0 -42 6 -33 13 20 4 33 2 42 -10 42
-10 0 -13 -6 -9 -16z"/>
<path d="M1996 2208 c-3 -7 -6 -25 -9 -40 -3 -21 0 -26 15 -25 13 1 18 9 18
34 0 33 -17 55 -24 31z"/>
<path d="M2031 2178 c0 -33 2 -38 9 -23 12 28 12 65 0 65 -5 0 -10 -19 -9 -42z"/>
<path d="M2067 2213 c-10 -17 -18 -78 -9 -64 8 11 10 11 15 0 3 -8 6 5 6 29 1
40 -3 51 -12 35z"/>
<path d="M2111 2173 c1 -26 4 -38 6 -25 2 12 9 20 14 16 5 -3 7 -10 4 -15 -4
-5 -2 -9 4 -9 6 0 9 17 8 37 -1 27 -7 39 -19 41 -15 3 -18 -4 -17 -45z"/>
<path d="M2160 2175 c0 -33 4 -45 15 -45 18 0 20 16 3 23 -10 4 -10 8 1 15 11
8 11 11 0 16 -11 5 -11 7 -1 12 17 8 15 24 -3 24 -11 0 -15 -12 -15 -45z"/>
<path d="M2201 2180 c0 -25 3 -39 6 -31 5 11 7 11 15 0 6 -9 7 -2 3 21 -11 54
-25 60 -24 10z"/>
<path d="M2231 2198 c1 -13 5 -34 9 -48 7 -20 8 -16 9 23 1 26 -3 47 -9 47 -5
0 -10 -10 -9 -22z"/>
<path d="M2286 2209 c-2 -8 -6 -26 -9 -40 -3 -23 0 -26 30 -27 23 -1 33 3 33
13 0 8 5 15 11 15 18 0 5 45 -13 48 -15 3 -18 -4 -19 -35 -2 -34 -2 -35 -6 -8
-5 35 -20 55 -27 34z"/>
<path d="M2370 2175 c0 -33 4 -45 15 -45 18 0 20 16 3 23 -10 4 -10 8 1 15 11
8 11 11 0 16 -11 5 -11 7 -1 12 17 8 15 24 -3 24 -11 0 -15 -12 -15 -45z"/>
<path d="M2411 2173 c1 -39 2 -43 9 -23 6 17 8 20 9 7 1 -14 9 -17 41 -15 36
2 40 5 40 27 0 15 -4 33 -10 41 -10 16 -15 8 -23 -40 -3 -17 -5 -12 -6 14 -1
32 -3 36 -15 27 -10 -8 -16 -9 -21 -1 -14 23 -25 7 -24 -37z"/>
<path d="M2521 2178 c0 -33 2 -38 9 -23 12 28 12 65 0 65 -5 0 -10 -19 -9 -42z"/>
<path d="M2557 2213 c-11 -20 -19 -75 -9 -69 6 3 17 -1 26 -9 10 -11 17 -12
22 -4 4 7 -1 16 -10 21 -11 6 -14 17 -10 32 5 23 -10 45 -19 29z"/>
<path d="M320 2070 l0 -40 40 2 c31 2 40 7 40 21 0 10 -4 16 -9 13 -4 -3 -6 6
-3 19 2 15 0 25 -7 25 -6 0 -11 -9 -11 -19 0 -26 -10 -51 -20 -51 -11 0 -9 42
3 58 7 9 4 12 -12 12 -18 0 -21 -6 -21 -40z"/>
<path d="M412 2068 c2 -30 8 -44 19 -46 12 -2 15 5 13 30 -2 18 -1 24 2 13 17
-58 45 -53 43 8 l-2 42 -7 -40 c-7 -38 -7 -38 -9 -8 -1 34 -16 52 -24 31 -4
-10 -6 -10 -6 0 -1 6 -8 12 -17 12 -12 0 -14 -9 -12 -42z"/>
<path d="M500 2070 c0 -35 3 -40 23 -39 16 1 18 2 5 6 -20 5 -25 23 -7 23 8 0
8 5 -1 15 -9 10 -9 15 -1 15 6 0 11 5 11 10 0 6 -7 10 -15 10 -11 0 -15 -11
-15 -40z"/>
<path d="M580 2069 c0 -21 4 -39 10 -39 5 0 7 6 5 13 -3 6 4 18 15 24 16 11
21 10 30 -7 9 -16 8 -19 -6 -13 -12 4 -15 2 -12 -8 3 -8 14 -13 24 -11 10 1
29 3 41 4 23 0 24 12 7 66 -7 23 -24 2 -24 -31 0 -29 -1 -30 -15 -11 -17 23
-19 38 -4 28 7 -4 10 -1 7 7 -2 7 -21 14 -41 16 -37 2 -37 2 -37 -38z"/>
<path d="M734 2097 c-11 -29 0 -72 19 -75 16 -3 18 2 15 39 -3 43 -23 64 -34
36z"/>
<path d="M784 2070 c0 -25 6 -44 11 -43 13 3 25 72 13 79 -4 3 -9 -12 -9 -33
l-2 -38 -7 40 -8 40 2 -45z"/>
<path d="M830 2093 c0 -10 -3 -27 -6 -38 -4 -16 0 -21 15 -21 14 0 21 7 21 19
0 10 -4 16 -9 13 -4 -3 -6 6 -3 19 2 15 0 25 -7 25 -6 0 -11 -8 -11 -17z"/>
<path d="M870 2070 c0 -31 4 -40 18 -40 15 0 15 2 2 11 -12 8 -12 12 -2 16 10
4 10 8 1 19 -8 10 -8 14 0 14 6 0 11 5 11 10 0 6 -7 10 -15 10 -11 0 -15 -11
-15 -40z"/>
<path d="M936 2099 c-2 -8 -6 -26 -9 -40 -3 -24 -1 -26 40 -28 l44 -1 -3 37
c-2 27 -8 39 -20 41 -15 3 -18 -4 -19 -35 -2 -34 -2 -35 -6 -8 -5 35 -20 55
-27 34z"/>
<path d="M1138 2098 c-7 -20 6 -72 17 -71 18 2 28 29 21 56 -7 28 -31 37 -38
15z"/>
<path d="M1221 2068 c1 -37 2 -39 9 -18 5 16 8 19 9 8 1 -9 6 -20 11 -23 6 -4
10 11 9 37 0 33 -2 38 -9 23 -7 -17 -9 -17 -9 -2 -1 9 -5 17 -11 17 -5 0 -10
-19 -9 -42z"/>
<path d="M1271 2095 c-1 -28 10 -65 20 -65 4 0 10 12 12 28 l4 27 2 -27 c1
-24 5 -28 30 -28 20 0 31 6 34 18 4 16 5 16 6 0 2 -31 20 -20 24 15 l4 32 1
-32 c1 -18 7 -33 12 -33 6 0 11 15 11 33 2 27 2 28 6 7 6 -30 22 -52 34 -44 5
3 9 22 9 44 0 37 -1 38 -37 38 -21 0 -46 -4 -55 -9 -11 -6 -18 -5 -21 4 -3 6
-6 -5 -6 -25 -1 -43 -28 -55 -28 -13 0 14 3 25 8 25 5 0 9 4 9 10 0 19 -50 6
-57 -15 -6 -19 -7 -18 -14 5 -6 20 -7 21 -8 5z"/>
<path d="M1491 2068 c1 -24 3 -35 6 -25 2 9 8 17 13 17 5 0 11 -8 13 -17 2
-10 4 0 3 22 -1 29 -6 41 -18 43 -15 3 -18 -4 -17 -40z"/>
<path d="M1540 2070 c0 -31 4 -40 18 -40 14 0 15 2 2 10 -12 8 -13 11 -1 19
11 7 11 10 0 15 -11 5 -11 7 -1 12 17 8 15 24 -3 24 -11 0 -15 -11 -15 -40z"/>
<path d="M1596 2073 c8 -45 9 -47 23 -38 6 3 10 23 10 43 l-1 37 -8 -30 -8
-30 -1 28 c0 15 -6 27 -11 27 -7 0 -8 -14 -4 -37z"/>
<path d="M1640 2070 c0 -36 3 -40 25 -40 16 0 25 6 25 15 0 21 18 19 23 -2 2
-10 4 0 3 22 -1 29 -6 41 -18 43 -15 3 -18 -4 -18 -32 0 -25 -4 -36 -15 -36
-8 0 -15 5 -15 10 0 6 5 10 11 10 8 0 8 5 -1 15 -9 10 -9 15 -1 15 6 0 11 5
11 10 0 6 -7 10 -15 10 -11 0 -15 -11 -15 -40z"/>
<path d="M1754 2094 c3 -9 6 -27 6 -41 0 -35 6 -26 13 20 5 29 3 37 -10 37
-10 0 -13 -6 -9 -16z"/>
<path d="M1796 2100 c-17 -54 -16 -69 4 -67 22 1 28 39 10 67 -8 13 -9 13 -14
0z"/>
<path d="M1830 2095 c7 -8 10 -26 8 -40 -3 -14 -1 -25 3 -25 5 0 9 11 9 24 0
13 3 31 6 40 4 12 0 16 -16 16 -19 0 -20 -2 -10 -15z"/>
<path d="M1890 2091 c0 -11 5 -23 10 -26 6 -3 10 -11 10 -16 0 -6 -4 -7 -10
-4 -5 3 -10 2 -10 -3 0 -17 13 -22 27 -11 11 10 11 16 -3 37 -9 13 -11 21 -5
18 6 -4 11 0 11 8 0 9 -7 16 -15 16 -8 0 -15 -9 -15 -19z"/>
<path d="M1950 2070 c0 -35 3 -40 23 -39 16 1 18 2 5 6 -20 5 -25 23 -7 23 8
0 8 4 0 14 -9 10 -8 15 3 19 19 8 26 -1 26 -35 0 -15 5 -28 11 -28 7 0 9 11 6
30 -4 17 -2 30 3 30 6 0 10 5 10 10 0 6 -18 10 -40 10 -40 0 -40 0 -40 -40z"/>
<path d="M2054 2095 c-10 -26 1 -70 19 -73 14 -3 17 4 18 35 l2 38 6 -33 c9
-49 26 -44 27 8 l2 45 -8 -40 -7 -40 -2 35 c-1 30 -5 35 -27 36 -14 1 -28 -4
-30 -11z"/>
<path d="M2152 2085 c3 -13 1 -22 -3 -19 -5 3 -9 -3 -9 -14 0 -13 6 -18 23
-17 12 1 28 -2 35 -8 14 -11 14 -13 17 41 2 31 -1 42 -11 42 -16 0 -19 -36 -4
-45 20 -12 10 -26 -10 -15 -12 6 -20 21 -20 35 0 14 -5 25 -11 25 -7 0 -9 -10
-7 -25z"/>
<path d="M2276 2094 c-3 -9 -6 -26 -6 -38 0 -17 6 -22 30 -24 23 -2 30 2 31
15 0 16 2 15 9 -2 7 -15 9 -11 7 20 -1 28 -7 40 -17 40 -11 0 -14 -9 -12 -34
2 -22 0 -31 -7 -26 -6 3 -11 19 -11 36 0 31 -14 39 -24 13z"/>
<path d="M2366 2102 c-9 -8 -7 -70 2 -76 16 -9 52 6 53 23 0 12 2 11 9 -4 6
-15 9 -9 8 25 0 37 -1 41 -8 20 -7 -21 -8 -22 -9 -5 -1 14 -9 20 -25 21 -14 1
-27 -1 -30 -4z m34 -37 c0 -7 -7 -15 -15 -19 -11 -4 -15 1 -15 19 0 18 4 23
15 19 8 -4 15 -12 15 -19z"/>
<path d="M2450 2068 c0 -21 4 -38 10 -38 5 0 7 13 4 30 -4 19 -2 30 5 30 6 0
11 -13 11 -30 0 -16 5 -30 10 -30 6 0 10 14 10 31 0 16 4 28 9 25 4 -3 6 -17
3 -31 -4 -21 -1 -25 19 -25 13 0 19 4 14 8 -14 9 -17 52 -4 52 5 0 9 4 9 9 0
5 -22 9 -50 8 l-50 -1 0 -38z"/>
<path d="M2562 2068 c3 -42 20 -56 26 -21 3 15 1 16 -7 3 -8 -12 -11 -7 -11
20 0 26 3 31 10 20 8 -13 10 -12 10 3 0 9 -7 17 -16 17 -12 0 -14 -9 -12 -42z"/>
<path d="M2604 2094 c3 -9 6 -27 6 -41 0 -35 6 -26 13 20 5 29 3 37 -10 37
-10 0 -13 -6 -9 -16z"/>
<path d="M2644 2097 c-10 -27 0 -72 16 -72 11 0 15 11 15 39 0 40 -20 61 -31
33z"/>
<path d="M320 1961 l0 -39 60 0 c55 1 60 3 60 24 0 55 -27 74 -32 22 -2 -17
-8 -33 -15 -35 -13 -5 -12 34 1 55 5 8 0 12 -13 12 -14 0 -21 -8 -24 -27 l-4
-28 -2 28 c-2 45 -31 35 -31 -12z"/>
<path d="M450 1985 c7 -8 10 -25 6 -40 -4 -14 -2 -25 4 -25 5 0 10 11 10 24 0
13 3 31 6 40 4 12 0 16 -16 16 -19 0 -20 -2 -10 -15z"/>
<path d="M492 1975 c3 -13 1 -22 -3 -19 -5 3 -9 -3 -9 -13 0 -12 7 -19 21 -19
15 0 19 5 15 21 -3 11 -6 28 -6 38 0 9 -5 17 -11 17 -7 0 -9 -10 -7 -25z"/>
<path d="M530 1960 c0 -31 4 -40 18 -40 15 0 15 2 2 11 -12 8 -12 12 -2 16 10
4 10 8 1 19 -8 10 -8 14 0 14 6 0 11 5 11 10 0 6 -7 10 -15 10 -11 0 -15 -11
-15 -40z"/>
<path d="M587 1963 c3 -21 8 -40 10 -43 9 -9 23 26 22 55 l-1 30 -8 -30 -8
-30 -1 28 c0 15 -5 27 -10 27 -6 0 -7 -17 -4 -37z"/>
<path d="M654 1984 c3 -9 6 -26 6 -39 0 -21 4 -23 58 -24 31 0 52 3 46 7 -12
8 -14 52 -2 52 4 0 8 5 8 10 0 6 -9 10 -19 10 -15 0 -21 -8 -24 -37 l-4 -38
-1 38 c-3 55 -32 42 -32 -14 0 -10 -4 -19 -10 -19 -14 0 -13 43 2 58 9 9 7 12
-11 12 -17 0 -22 -4 -17 -16z"/>
<path d="M790 1961 c0 -35 3 -41 21 -41 17 0 20 5 17 37 -2 27 -8 39 -20 41
-15 3 -18 -4 -18 -37z"/>
<path d="M865 1992 c-3 -3 -5 -20 -5 -39 0 -26 4 -33 20 -33 12 0 20 7 20 16
0 14 -3 14 -15 4 -13 -11 -15 -8 -15 15 0 19 4 26 14 22 8 -3 17 -1 20 6 2 7
5 -5 5 -25 1 -41 21 -54 21 -14 0 13 3 31 6 40 5 12 -1 15 -30 14 -20 -1 -38
-4 -41 -6z"/>
<path d="M946 1978 c-10 -40 -7 -54 15 -54 17 0 20 5 15 29 -3 16 -6 33 -6 38
0 18 -18 8 -24 -13z"/>
<path d="M1005 1990 c-4 -6 0 -22 9 -35 14 -21 14 -24 1 -19 -8 4 -15 1 -15
-5 0 -6 9 -11 20 -11 23 0 26 19 8 39 -10 11 -10 14 0 18 6 3 12 9 12 14 0 12
-27 11 -35 -1z"/>
<path d="M1052 1963 c-2 -32 2 -43 13 -43 11 0 15 11 14 43 l-2 42 -7 -40 -6
-40 -6 40 -5 40 -1 -42z"/>
<path d="M1090 1960 c0 -22 4 -40 9 -40 5 0 7 10 4 23 -4 21 -3 21 11 -3 15
-25 15 -25 15 20 0 34 -2 40 -9 25 -7 -17 -9 -17 -9 -2 -2 36 -21 15 -21 -23z"/>
<path d="M1147 1963 c6 -39 10 -50 17 -42 2 2 6 21 9 42 5 32 3 37 -13 37 -16
0 -18 -5 -13 -37z"/>
<path d="M1200 1960 l0 -40 38 2 c36 3 37 4 37 40 0 20 -2 32 -6 26 -4 -7 -9
-7 -13 1 -4 6 -18 11 -32 11 -21 0 -24 -4 -24 -40z m50 -1 c0 -11 -7 -22 -15
-26 -22 -8 -33 6 -15 18 12 9 13 11 1 16 -11 4 -11 7 0 14 18 10 29 2 29 -22z"/>
<path d="M1291 1957 c1 -23 3 -35 6 -25 6 25 33 31 33 8 0 -15 7 -20 28 -20
26 0 28 3 26 33 l-3 32 7 -30 c7 -29 9 -30 70 -32 l63 -3 -3 37 c-2 27 -8 39
-20 41 -15 3 -18 -4 -19 -35 l-2 -38 -6 33 c-3 18 -10 33 -16 33 -5 0 -13 -15
-16 -33 -4 -18 -7 -26 -8 -18 -1 13 -2 13 -11 0 -8 -12 -10 -9 -10 13 0 16 4
26 10 22 6 -3 10 1 10 9 0 11 -9 15 -30 13 -27 -2 -30 -6 -30 -34 0 -18 -4
-33 -10 -33 -5 0 -10 15 -10 33 0 31 -3 34 -30 35 -29 1 -30 -1 -29 -41z"/>
<path d="M1530 1961 c0 -39 13 -61 25 -42 3 6 13 8 23 5 11 -4 13 -3 5 3 -6 4
-13 22 -15 38 -2 19 -10 31 -20 33 -15 3 -18 -4 -18 -37z"/>
<path d="M1610 1960 c0 -22 5 -40 11 -40 6 0 8 9 4 23 -5 20 -5 20 9 -3 15
-25 15 -24 15 20 0 34 -2 40 -9 25 -7 -17 -9 -17 -9 -2 -2 36 -21 15 -21 -23z"/>
<path d="M1660 1960 l0 -40 70 1 70 2 0 38 c0 36 -2 38 -29 36 -20 -1 -32 -9
-37 -22 -6 -19 -7 -19 -11 3 -3 17 -11 22 -34 22 -27 0 -29 -2 -29 -40z m40 0
c0 -20 -5 -30 -15 -30 -8 0 -15 5 -15 10 0 6 5 10 11 10 8 0 8 4 0 14 -11 13
-8 17 17 25 1 1 2 -12 2 -29z"/>
<path d="M1830 1960 c0 -31 4 -40 18 -40 15 0 15 2 2 11 -12 8 -12 12 -2 16
10 4 10 8 1 19 -8 10 -8 14 0 14 6 0 11 5 11 10 0 6 -7 10 -15 10 -11 0 -15
-11 -15 -40z"/>
<path d="M1871 1958 c1 -37 2 -39 9 -18 12 36 12 60 0 60 -5 0 -10 -19 -9 -42z"/>
<path d="M1897 1966 c-5 -21 -6 -41 -3 -44 12 -11 17 7 14 44 l-3 39 -8 -39z"/>
<path d="M1941 1958 c0 -33 2 -38 9 -23 12 28 12 65 0 65 -5 0 -10 -19 -9 -42z"/>
<path d="M1967 1963 c-4 -20 -4 -39 -2 -42 3 -2 5 4 6 15 0 18 1 18 9 -1 7
-15 9 -10 9 23 1 52 -14 56 -22 5z"/>
<path d="M2040 1959 c0 -22 5 -39 11 -39 5 0 7 5 4 11 -10 16 27 40 42 27 18
-14 16 -29 -2 -22 -8 4 -15 1 -15 -5 0 -6 20 -10 50 -10 36 1 50 6 53 18 4 14
5 13 6 -1 1 -11 9 -18 21 -18 17 0 20 7 20 40 0 45 -11 52 -28 18 l-11 -23 0
23 c-1 38 -21 24 -22 -15 l-2 -38 -6 33 c-8 43 -25 46 -29 4 -3 -31 -4 -33
-17 -15 -17 21 -20 47 -5 38 6 -3 10 -2 10 3 0 5 -18 9 -40 9 -40 0 -40 0 -40
-38z"/>
<path d="M2255 1965 c7 -40 12 -52 19 -44 2 2 6 22 9 44 4 24 3 32 -2 20 -8
-19 -8 -19 -20 0 -10 17 -11 14 -6 -20z"/>
<path d="M2300 1960 c0 -29 4 -40 15 -40 11 0 15 11 15 40 0 29 -4 40 -15 40
-11 0 -15 -11 -15 -40z"/>
<path d="M2340 1960 c0 -40 0 -40 40 -40 l40 0 0 41 c0 23 -4 38 -10 34 -5 -3
-7 -12 -3 -20 3 -8 2 -23 -3 -32 -6 -14 -9 -9 -14 22 l-7 40 -2 -38 c-1 -26
-5 -37 -13 -34 -8 2 -12 16 -10 35 2 18 -1 32 -7 32 -6 0 -11 -18 -11 -40z"/>
<path d="M2431 1958 c1 -24 3 -35 6 -25 2 9 9 17 14 17 5 0 9 11 9 25 0 16 -6
25 -15 25 -11 0 -15 -11 -14 -42z"/>
<path d="M2477 1961 c7 -47 13 -53 13 -13 0 17 5 34 11 38 8 5 10 -4 7 -28 -3
-31 -1 -35 17 -35 18 0 20 4 17 35 -3 24 -1 33 7 28 6 -4 11 -21 11 -38 0 -40
6 -34 13 13 l5 37 -53 0 -53 0 5 -37z"/>
<path d="M2590 1960 c0 -31 4 -40 18 -40 15 0 15 2 2 11 -12 8 -12 12 -2 16
10 4 10 8 1 19 -8 10 -8 14 0 14 6 0 11 5 11 10 0 6 -7 10 -15 10 -11 0 -15
-11 -15 -40z"/>
<path d="M2631 1958 c1 -24 4 -34 7 -23 5 20 5 20 13 0 8 -20 8 -20 9 0 1 20
1 20 10 0 7 -15 9 -10 9 23 1 44 -15 58 -22 20 l-4 -23 -2 23 c-2 41 -21 22
-20 -20z"/>
<path d="M440 1852 c0 -32 4 -41 21 -45 18 -5 20 -1 17 36 -2 30 -8 43 -20 45
-15 3 -18 -4 -18 -36z"/>
<path d="M492 1853 c-2 -32 2 -43 13 -43 11 0 15 11 14 43 l-2 42 -7 -40 -6
-40 -6 40 -5 40 -1 -42z"/>
<path d="M530 1850 c0 -38 1 -39 33 -38 32 1 33 2 28 36 -8 47 -28 53 -34 10
l-4 -33 -1 33 c-3 46 -22 40 -22 -8z"/>
<path d="M619 1853 c8 -50 29 -54 34 -6 l4 38 1 -37 c2 -31 6 -38 23 -38 17 0
20 5 17 37 -3 33 -6 38 -30 40 -20 1 -28 -3 -31 -20 l-4 -22 -2 23 c0 12 -5
22 -9 22 -5 0 -6 -17 -3 -37z"/>
<path d="M744 1868 c3 -13 6 -31 6 -40 0 -10 7 -18 15 -18 11 0 15 11 14 43
l-2 42 -7 -40 -7 -40 -2 38 c0 20 -6 37 -12 37 -7 0 -9 -9 -5 -22z"/>
<path d="M790 1849 c0 -48 12 -50 30 -4 16 40 35 36 26 -6 -3 -16 -2 -29 3
-29 5 0 11 18 13 39 l3 40 -37 -1 c-37 0 -38 -1 -38 -39z"/>
<path d="M880 1873 c0 -10 -3 -27 -6 -38 -4 -16 0 -21 15 -21 14 0 21 7 21 19
0 10 -4 16 -9 13 -4 -3 -6 6 -3 19 2 15 0 25 -7 25 -6 0 -11 -8 -11 -17z"/>
<path d="M920 1871 c0 -11 5 -23 10 -26 6 -3 10 -11 10 -16 0 -6 -4 -7 -10 -4
-5 3 -10 1 -10 -4 0 -13 27 -15 34 -2 3 4 -1 17 -9 27 -17 22 -19 38 -5 29 6
-3 10 -1 10 4 0 6 -7 11 -15 11 -8 0 -15 -9 -15 -19z"/>
<path d="M980 1871 c0 -11 5 -23 10 -26 6 -3 10 -11 10 -16 0 -6 -4 -7 -10 -4
-5 3 -10 1 -10 -4 0 -6 7 -11 15 -11 17 0 21 35 5 45 -5 3 -10 11 -10 16 0 6
5 7 10 4 6 -3 10 -1 10 4 0 6 -7 11 -15 11 -8 0 -15 -9 -15 -19z"/>
<path d="M1048 1850 c2 -22 8 -40 12 -40 4 0 10 18 12 40 3 31 0 40 -12 40
-12 0 -15 -9 -12 -40z"/>
<path d="M1106 1859 c-3 -17 -6 -34 -6 -38 0 -3 18 -7 40 -8 33 -1 40 2 40 17
0 10 -4 22 -10 25 -5 3 -10 11 -10 16 0 6 5 7 10 4 6 -3 10 -1 10 4 0 6 -7 11
-15 11 -18 0 -20 -31 -3 -48 6 -6 9 -14 6 -17 -9 -10 -38 25 -38 46 0 31 -17
22 -24 -12z"/>
<path d="M1191 1846 c1 -22 3 -34 6 -24 6 25 33 31 33 8 0 -27 60 -29 61 -2 0
14 2 14 9 -3 7 -15 9 -10 9 23 1 52 -26 61 -31 10 -4 -40 -26 -50 -25 -11 1
15 6 31 11 35 6 4 -9 7 -32 6 l-42 0 1 -42z"/>
<path d="M1321 1848 c1 -37 2 -39 9 -18 12 36 12 60 0 60 -5 0 -10 -19 -9 -42z"/>
<path d="M1346 1858 c-3 -17 -2 -36 4 -42 7 -7 10 4 10 32 0 50 -5 54 -14 10z"/>
<path d="M1376 1868 c-10 -40 -7 -54 15 -54 15 0 19 5 15 21 -3 11 -6 28 -6
38 0 25 -17 21 -24 -5z"/>
<path d="M1419 1848 c5 -37 6 -39 9 -13 5 46 22 55 22 12 0 -30 4 -37 20 -37
17 0 20 6 18 43 l-1 42 -4 -37 c-5 -48 -23 -50 -23 -3 0 30 -3 35 -23 35 -21
0 -22 -4 -18 -42z"/>
<path d="M1501 1848 c0 -33 2 -38 9 -23 7 17 9 17 9 3 1 -10 5 -18 10 -18 6 0
9 17 7 37 -1 27 -7 39 -19 41 -14 3 -17 -4 -16 -40z"/>
<path d="M1566 1868 c-10 -40 -7 -54 15 -54 15 0 19 5 15 21 -3 11 -6 28 -6
38 0 25 -17 21 -24 -5z"/>
<path d="M1612 1853 c-2 -32 2 -43 13 -43 11 0 15 11 14 43 l-2 42 -7 -40 -6
-40 -6 40 -5 40 -1 -42z"/>
<path d="M1658 1850 c2 -22 8 -40 12 -40 4 0 10 18 12 40 3 31 0 40 -12 40
-12 0 -15 -9 -12 -40z"/>
<path d="M1717 1884 c-4 -4 -7 -22 -7 -41 0 -27 4 -33 21 -33 17 0 20 5 17 37
-3 35 -17 51 -31 37z"/>
<path d="M1760 1851 c0 -38 2 -40 30 -39 27 1 30 4 30 35 0 19 4 32 8 29 5 -3
7 -19 4 -36 -2 -18 0 -30 7 -30 6 0 11 11 11 24 0 13 3 31 6 40 5 12 -1 16
-24 16 -17 0 -33 -6 -35 -12 -4 -10 -6 -10 -6 0 -1 6 -8 12 -16 12 -11 0 -15
-11 -15 -39z"/>
<path d="M1890 1866 c0 -13 -3 -31 -6 -40 -4 -11 0 -14 15 -13 21 1 28 28 15
61 -9 24 -24 19 -24 -8z"/>
<path d="M1931 1853 c-1 -37 2 -43 19 -43 16 0 20 7 20 36 0 22 4 33 11 29 6
-4 7 -19 4 -36 -4 -18 -3 -29 4 -29 6 0 11 11 11 24 0 13 3 32 6 41 6 13 1 16
-22 13 -22 -2 -28 -8 -26 -22 2 -10 0 -25 -4 -35 -6 -11 -10 -5 -14 24 l-7 40
-2 -42z"/>
<path d="M2030 1850 c0 -22 5 -40 10 -40 10 0 14 20 12 53 -1 9 2 17 7 17 6 0
11 -15 13 -32 2 -22 9 -34 21 -36 14 -3 17 4 16 40 l-2 43 -7 -40 -7 -40 -2
38 c-1 34 -3 37 -31 37 -28 0 -30 -2 -30 -40z"/>
<path d="M2120 1851 c0 -39 2 -41 30 -41 28 0 30 3 30 36 0 21 4 33 10 29 6
-3 10 -20 10 -37 0 -40 6 -34 13 15 5 34 4 37 -19 37 -21 0 -24 -5 -25 -37 -1
-21 -3 -30 -6 -20 -2 9 -8 17 -13 17 -5 0 -7 -7 -4 -15 4 -8 1 -15 -5 -15 -6
0 -11 12 -11 26 0 20 4 25 16 20 10 -4 14 -1 12 6 -3 7 -12 14 -21 16 -14 3
-17 -5 -17 -37z"/>
<path d="M2260 1869 c0 -10 5 -21 10 -24 6 -3 10 -11 10 -16 0 -6 -4 -7 -10
-4 -5 3 -10 2 -10 -3 0 -5 27 -10 60 -11 l60 -1 0 40 0 40 -60 -1 c-51 -1 -60
-4 -60 -20z m80 -19 c0 -29 -13 -40 -25 -20 -3 6 -1 10 5 10 7 0 9 8 5 20 -4
11 -2 20 4 20 6 0 11 -13 11 -30z"/>
<path d="M2410 1849 c0 -21 2 -39 4 -39 2 0 11 -3 19 -6 11 -4 14 2 11 23 -4
26 -4 26 5 6 6 -13 17 -23 26 -23 11 0 15 10 14 43 l-2 42 -7 -40 -7 -40 -2
36 c-1 33 -4 36 -31 37 -28 1 -30 -1 -30 -39z"/>
<path d="M2532 1865 c3 -13 1 -22 -3 -19 -5 3 -9 -3 -9 -13 0 -12 7 -19 21
-19 17 0 20 5 15 29 -3 16 -6 33 -6 38 0 5 -5 9 -11 9 -7 0 -9 -10 -7 -25z"/>
<path d="M324 1766 c-3 -8 -4 -25 -2 -38 4 -28 38 -38 38 -11 0 15 -2 16 -10
3 -7 -11 -10 -6 -10 20 0 26 3 31 10 20 8 -13 10 -12 10 3 0 20 -28 23 -36 3z"/>
<path d="M370 1740 c0 -34 3 -41 18 -38 12 2 17 13 17 38 0 25 -5 36 -17 38
-15 3 -18 -4 -18 -38z"/>
<path d="M419 1743 c-4 -42 5 -59 14 -25 4 16 5 16 6 0 1 -13 10 -18 31 -18
32 0 39 17 18 38 -10 10 -10 15 1 21 10 6 10 10 1 16 -23 14 -33 -11 -15 -38
16 -25 16 -26 -4 -24 -17 1 -21 8 -21 37 0 23 -3 31 -9 21 -7 -11 -9 -11 -13
0 -3 8 -7 -5 -9 -28z"/>
<path d="M510 1740 c0 -31 4 -40 18 -40 10 0 13 3 6 8 -5 4 -10 18 -10 32 0
14 5 28 10 32 7 5 4 8 -6 8 -14 0 -18 -9 -18 -40z"/>
<path d="M550 1740 c0 -22 2 -40 4 -40 2 0 10 -2 18 -5 10 -4 12 5 10 40 -5
59 -32 64 -32 5z"/>
<path d="M592 1743 c2 -27 8 -39 21 -41 14 -3 17 4 16 40 l-2 43 -6 -40 c-4
-27 -9 -36 -14 -27 -5 7 -6 24 -3 38 4 14 2 24 -4 24 -7 0 -10 -15 -8 -37z"/>
<path d="M641 1743 c-1 -40 0 -42 29 -41 17 1 30 5 30 10 0 4 -4 8 -10 8 -5 0
-10 10 -9 23 0 19 2 18 16 -10 22 -44 29 -41 25 8 -3 28 -7 37 -13 28 -6 -10
-9 -11 -9 -1 0 6 -9 12 -20 12 -16 0 -20 -7 -21 -37 l-2 -38 -7 40 -7 40 -2
-42z"/>
<path d="M738 1740 c5 -51 22 -52 23 -2 l2 37 6 -35 c4 -22 12 -36 24 -38 14
-3 17 4 16 40 l-2 43 -7 -40 -7 -40 -2 38 c-1 33 -4 37 -29 37 -26 0 -27 -2
-24 -40z"/>
<path d="M821 1738 c0 -33 2 -38 9 -23 7 17 9 17 9 3 1 -10 5 -18 10 -18 6 0
9 17 7 37 -1 27 -7 39 -19 41 -14 3 -17 -4 -16 -40z"/>
<path d="M880 1740 l0 -40 85 2 c68 1 85 4 88 17 4 13 5 13 6 -1 1 -11 9 -18
21 -18 17 0 20 7 20 40 0 33 -3 40 -20 40 -11 0 -20 -6 -20 -12 0 -9 -4 -8
-10 2 -7 11 -10 5 -11 -25 -1 -22 -3 -32 -6 -22 -2 9 -9 17 -14 17 -6 0 -8 -4
-4 -9 3 -5 1 -12 -5 -16 -6 -4 -10 6 -10 24 0 24 3 29 17 24 11 -4 14 -3 9 5
-16 26 -36 12 -37 -25 l-2 -38 -6 34 c-9 49 -29 51 -34 4 l-4 -38 -1 38 c-2
34 -22 55 -22 22 0 -8 -4 -15 -10 -15 -5 0 -10 7 -10 15 0 8 -4 15 -10 15 -5
0 -10 -18 -10 -40z"/>
<path d="M1120 1740 c0 -33 3 -40 20 -40 17 0 20 7 20 40 0 33 -3 40 -20 40
-17 0 -20 -7 -20 -40z"/>
<path d="M1170 1741 l0 -39 60 0 60 0 0 40 c0 32 -3 39 -17 36 -12 -2 -19 -14
-21 -36 -4 -42 -22 -41 -22 1 0 31 -3 34 -30 35 -28 1 -30 -2 -30 -37z"/>
<path d="M1301 1738 c1 -24 3 -35 6 -25 2 9 8 17 13 17 5 0 7 -7 4 -15 -5 -12
4 -14 45 -14 42 1 51 5 51 20 0 10 -4 21 -10 24 -5 3 -10 11 -10 16 0 6 5 7
10 4 6 -3 10 -2 10 3 0 6 -16 10 -35 10 -33 0 -35 -2 -35 -36 0 -19 -3 -32 -7
-28 -4 4 -7 19 -8 34 0 17 -6 28 -17 30 -15 3 -18 -4 -17 -40z m93 7 c20 -31
20 -30 -7 -31 -20 -1 -24 3 -24 27 0 35 10 37 31 4z"/>
<path d="M1450 1740 c0 -31 4 -40 18 -40 14 0 14 2 3 9 -12 8 -12 12 -2 24 9
12 9 16 -1 20 -10 4 -10 8 2 16 13 9 13 11 -2 11 -14 0 -18 -9 -18 -40z"/>
<path d="M1490 1740 c0 -37 0 -37 40 -37 32 0 40 3 40 18 0 10 -4 21 -10 24
-5 3 -10 11 -10 16 0 6 5 7 10 4 6 -3 10 -2 10 3 0 5 -18 9 -40 9 -40 0 -40 0
-40 -37z"/>
<path d="M1597 1773 c-4 -3 -7 -19 -7 -34 0 -34 28 -53 62 -40 13 4 29 6 36 4
8 -3 12 8 11 39 l-2 43 -7 -40 -6 -40 -6 40 -5 40 -1 -37 c-1 -21 -6 -38 -12
-38 -5 0 -11 17 -12 38 l-1 37 -7 -45 -7 -45 -1 43 c-2 39 -16 54 -35 35z"/>
<path d="M1729 1778 c-11 -47 2 -105 14 -60 4 16 5 16 6 0 2 -25 61 -20 61 5
0 10 -4 16 -9 13 -4 -3 -6 6 -3 19 2 15 0 25 -7 25 -6 0 -11 -10 -11 -22 0
-13 -5 -30 -10 -38 -7 -11 -10 -5 -10 23 0 26 -4 37 -15 37 -8 0 -15 -1 -16
-2z"/>
<path d="M1818 1740 c5 -50 20 -52 25 -2 l4 37 1 -37 c3 -51 22 -49 22 2 0 37
-2 40 -28 40 -26 0 -27 -2 -24 -40z"/>
<path d="M1880 1740 c0 -29 4 -40 15 -40 11 0 15 11 15 40 0 29 -4 40 -15 40
-11 0 -15 -11 -15 -40z"/>
<path d="M1921 1738 c1 -37 2 -39 9 -18 5 16 8 19 9 8 1 -9 6 -20 11 -23 6 -4
10 11 9 37 0 33 -2 38 -9 23 -7 -17 -9 -17 -9 -2 -1 9 -5 17 -11 17 -5 0 -10
-19 -9 -42z"/>
<path d="M1970 1740 c0 -35 3 -40 23 -39 16 1 18 2 5 6 -21 5 -23 19 -5 26 9
4 9 8 -2 15 -11 8 -10 12 5 21 18 10 18 10 -3 11 -20 0 -23 -5 -23 -40z"/>
<path d="M2029 1743 c8 -47 28 -54 34 -11 l4 33 1 -32 c2 -26 6 -33 22 -33 17
0 20 7 20 39 0 37 -2 40 -30 39 -21 -1 -30 -7 -33 -22 -4 -20 -4 -20 -6 2 0
12 -5 22 -9 22 -5 0 -6 -17 -3 -37z"/>
<path d="M2162 1743 c-2 -32 2 -43 13 -43 11 0 15 11 14 43 l-2 42 -7 -40 -6
-40 -6 40 -5 40 -1 -42z"/>
<path d="M2200 1739 c0 -48 12 -50 30 -4 16 40 34 36 28 -6 -3 -16 -1 -29 3
-29 4 0 9 18 11 39 l3 40 -37 -1 c-37 0 -38 -1 -38 -39z"/>
<path d="M2290 1763 c0 -10 -3 -27 -6 -38 -4 -16 0 -21 15 -21 22 0 25 14 15
54 -7 26 -24 30 -24 5z"/>
<path d="M2328 1740 c2 -22 8 -40 12 -40 4 0 10 18 12 40 3 31 0 40 -12 40
-12 0 -15 -9 -12 -40z"/>
<path d="M2370 1756 c0 -13 -3 -31 -6 -40 -5 -12 0 -16 17 -16 13 0 19 4 13 8
-5 4 -10 18 -10 32 0 14 5 28 10 32 7 5 4 8 -6 8 -12 0 -18 -8 -18 -24z"/>
<path d="M2410 1742 c0 -28 4 -39 15 -39 8 0 15 7 16 16 0 12 3 11 9 -4 7 -15
9 -10 9 23 1 23 -3 42 -9 42 -5 0 -10 -10 -11 -22 l0 -23 -9 23 c-14 32 -20
27 -20 -16z"/>
<path d="M2485 1769 c-4 -5 0 -18 9 -28 21 -23 20 -32 -1 -24 -11 4 -14 3 -9
-5 4 -7 14 -12 22 -12 16 0 19 36 4 45 -5 3 -10 11 -10 16 0 6 5 7 10 4 6 -3
10 -1 10 4 0 14 -27 14 -35 0z"/>
<path d="M2530 1740 c0 -31 4 -40 18 -40 14 0 14 2 3 9 -12 8 -12 12 -2 24 9
12 9 16 -1 20 -10 4 -10 8 2 16 13 9 13 11 -2 11 -14 0 -18 -9 -18 -40z"/>
<path d="M2570 1740 c0 -29 4 -39 20 -43 17 -4 20 0 22 31 l1 37 4 -32 c7 -52
33 -43 32 10 l-2 42 -7 -40 -7 -40 -2 36 c-1 33 -4 36 -31 37 -28 1 -30 -2
-30 -38z"/>
<path d="M2660 1740 c0 -22 5 -40 10 -40 6 0 10 18 10 40 0 22 -4 40 -10 40
-5 0 -10 -18 -10 -40z"/>
<path d="M381 1628 c1 -37 2 -39 9 -18 5 16 8 19 9 8 1 -9 6 -20 11 -23 6 -4
10 11 9 37 0 33 -2 38 -9 23 -7 -17 -9 -17 -9 -2 -1 9 -5 17 -11 17 -5 0 -10
-19 -9 -42z"/>
<path d="M430 1630 l0 -40 60 2 c47 1 60 5 60 17 0 14 -1 14 -10 1 -7 -11 -10
-6 -10 20 0 26 3 31 10 20 9 -13 10 -13 10 1 0 12 -13 16 -60 17 l-60 2 0 -40z
m48 5 c7 -14 12 -27 12 -28 0 -2 -11 -4 -25 -5 -27 -2 -32 7 -13 26 9 9 9 12
0 12 -7 0 -12 5 -12 10 0 20 27 9 38 -15z"/>
<path d="M581 1632 c-1 -36 2 -43 17 -40 12 2 18 14 20 41 2 21 -1 37 -7 37
-6 0 -12 -17 -12 -37 l-2 -38 -7 40 -7 40 -2 -43z"/>
<path d="M628 1631 c-4 -41 6 -57 15 -23 4 16 5 16 6 0 0 -10 6 -18 12 -18 7
0 8 11 4 29 -3 17 -2 32 4 36 7 4 11 -7 11 -29 0 -49 17 -46 22 4 3 38 2 40
-24 40 -16 0 -28 -6 -28 -12 0 -10 -3 -9 -9 1 -6 9 -10 0 -13 -28z"/>
<path d="M745 1628 c-1 -39 10 -52 18 -20 4 16 5 16 6 0 1 -13 10 -18 34 -18
18 0 27 4 20 8 -14 9 -13 54 2 64 5 5 -10 7 -35 6 l-45 -1 0 -39z"/>
<path d="M840 1631 c0 -28 5 -40 18 -43 15 -4 17 1 13 39 -4 57 -31 61 -31 4z"/>
<path d="M882 1633 c2 -27 8 -39 21 -41 14 -3 17 4 16 40 l-2 43 -7 -40 c-5
-31 -8 -36 -14 -22 -5 9 -6 26 -3 37 3 11 1 20 -5 20 -5 0 -8 -17 -6 -37z"/>
<path d="M930 1630 c0 -31 4 -40 18 -40 14 0 14 2 3 9 -12 8 -12 12 -2 24 9
12 9 16 -1 20 -10 4 -10 8 2 16 13 9 13 11 -2 11 -14 0 -18 -9 -18 -40z"/>
<path d="M991 1628 c1 -24 3 -35 6 -25 2 9 9 17 14 17 5 0 9 11 9 25 0 16 -6
25 -15 25 -11 0 -15 -11 -14 -42z"/>
<path d="M1030 1630 c0 -34 3 -41 18 -38 12 2 17 13 17 38 0 25 -5 36 -17 38
-15 3 -18 -4 -18 -38z"/>
<path d="M1081 1628 c0 -33 2 -38 9 -23 7 17 9 17 9 3 1 -11 9 -18 22 -18 15
0 19 5 15 15 -3 8 -1 15 4 15 5 0 11 -8 13 -17 3 -10 5 1 6 25 1 35 -2 42 -18
42 -15 0 -21 -8 -24 -37 l-4 -38 -1 38 c-1 25 -7 37 -17 37 -11 0 -15 -11 -14
-42z"/>
<path d="M1170 1630 c0 -34 3 -41 18 -38 12 2 17 13 17 38 0 25 -5 36 -17 38
-15 3 -18 -4 -18 -38z"/>
<path d="M1230 1631 c0 -30 4 -40 20 -44 18 -5 20 0 20 39 0 37 -3 44 -20 44
-17 0 -20 -7 -20 -39z"/>
<path d="M1281 1633 c-1 -53 25 -62 32 -10 l4 32 1 -31 c2 -27 6 -31 32 -32
23 0 30 4 30 18 0 10 -4 22 -10 25 -5 3 -10 11 -10 16 0 6 5 7 10 4 6 -3 10
-2 10 3 0 5 -18 10 -40 10 -39 1 -40 0 -41 -36 l-2 -37 -7 40 -7 40 -2 -42z"/>
<path d="M1390 1631 c0 -28 5 -40 18 -43 15 -4 17 1 13 39 -4 57 -31 61 -31 4z"/>
<path d="M1432 1633 c2 -27 8 -39 21 -41 14 -3 17 4 16 40 l-2 43 -6 -40 c-4
-24 -9 -35 -14 -28 -4 7 -5 24 -1 38 4 16 2 25 -6 25 -7 0 -10 -14 -8 -37z"/>
<path d="M1486 1654 c-3 -9 -6 -28 -6 -42 0 -21 2 -24 10 -12 6 10 10 11 10 3
0 -8 15 -13 40 -13 40 0 40 0 40 40 0 41 -19 58 -21 18 l0 -23 -11 23 c-16 32
-31 27 -23 -8 4 -19 3 -30 -4 -30 -6 0 -11 14 -11 30 0 32 -14 40 -24 14z"/>
<path d="M1600 1630 c0 -39 0 -39 40 -38 32 0 40 4 40 19 0 10 -4 21 -10 24
-16 10 -11 21 10 22 16 1 20 -5 22 -35 l1 -37 4 35 c3 19 10 38 16 42 7 4 -18
7 -55 7 l-68 -1 0 -38z m51 8 c24 -30 24 -33 -4 -34 -20 -1 -24 3 -24 27 0 35
3 36 28 7z"/>
<path d="M1760 1630 c0 -29 4 -39 20 -43 17 -4 20 0 22 36 l1 42 4 -37 c6 -56
33 -52 32 5 l-2 42 -7 -40 -7 -40 -2 36 c-1 33 -4 36 -31 37 -28 1 -30 -2 -30
-38z"/>
<path d="M1850 1630 c0 -22 5 -40 10 -40 6 0 10 18 10 40 0 22 -4 40 -10 40
-5 0 -10 -18 -10 -40z"/>
<path d="M1890 1630 c0 -34 3 -41 18 -38 12 2 17 13 17 38 0 25 -5 36 -17 38
-15 3 -18 -4 -18 -38z"/>
<path d="M1940 1631 l0 -39 60 0 60 0 0 39 c0 32 -3 39 -20 39 -16 0 -20 -7
-20 -35 0 -19 -4 -35 -10 -35 -5 0 -10 15 -10 33 0 31 -3 34 -30 35 -28 1 -30
-2 -30 -37z"/>
<path d="M2071 1628 c0 -33 2 -38 9 -23 7 17 9 17 9 3 1 -15 11 -18 61 -18
l60 0 0 40 c0 38 -20 60 -20 23 -1 -17 -1 -17 -14 0 -7 9 -25 17 -39 17 -22 0
-26 -5 -30 -32 l-4 -33 -1 33 c-1 21 -7 32 -17 32 -11 0 -15 -11 -14 -42z m83
17 c6 -17 -2 -45 -14 -45 -5 0 -8 14 -8 30 1 32 12 40 22 15z"/>
<path d="M2230 1630 c0 -22 5 -40 10 -40 6 0 10 18 10 40 0 22 -4 40 -10 40
-5 0 -10 -18 -10 -40z"/>
<path d="M2261 1628 c1 -24 3 -35 6 -25 2 9 9 17 14 17 5 0 9 11 9 25 0 16 -6
25 -15 25 -11 0 -15 -11 -14 -42z"/>
<path d="M2300 1650 c0 -10 5 -22 10 -25 6 -3 10 -11 10 -16 0 -6 -4 -7 -10
-4 -5 3 -10 2 -10 -3 0 -5 18 -9 40 -9 l40 0 -1 41 -2 41 -7 -40 -7 -40 -2 36
c-1 33 -4 36 -31 37 -23 0 -30 -4 -30 -18z"/>
<path d="M2391 1628 c1 -24 4 -34 7 -23 5 20 5 20 13 0 8 -20 8 -20 9 0 1 20
1 20 10 0 7 -15 9 -10 9 23 1 44 -15 58 -22 20 l-4 -23 -2 23 c-2 41 -21 22
-20 -20z"/>
<path d="M2470 1630 c0 -29 4 -39 19 -43 17 -4 19 0 16 32 -4 32 -4 33 3 6 4
-16 15 -31 25 -33 14 -3 17 4 16 40 l-2 43 -7 -40 -7 -40 -2 36 c-1 33 -4 36
-31 37 -28 1 -30 -2 -30 -38z"/>
<path d="M2592 1645 c3 -13 1 -22 -3 -19 -5 3 -9 -3 -9 -13 0 -12 7 -19 21
-19 17 0 20 5 15 29 -3 16 -6 33 -6 38 0 5 -5 9 -11 9 -7 0 -9 -10 -7 -25z"/>
<path d="M270 1520 c0 -34 3 -41 18 -38 12 2 17 13 17 38 0 25 -5 36 -17 38
-15 3 -18 -4 -18 -38z"/>
<path d="M320 1520 c0 -29 4 -40 15 -40 11 0 15 11 15 40 0 29 -4 40 -15 40
-11 0 -15 -11 -15 -40z"/>
<path d="M360 1520 c0 -30 4 -40 16 -40 13 0 14 3 4 15 -7 8 -10 25 -6 40 4
14 2 25 -4 25 -5 0 -10 -18 -10 -40z"/>
<path d="M400 1520 c0 -34 3 -41 18 -38 12 2 17 13 17 38 0 25 -5 36 -17 38
-15 3 -18 -4 -18 -38z"/>
<path d="M451 1518 c0 -33 2 -38 9 -23 7 17 9 17 9 3 1 -10 4 -18 9 -18 4 0 6
18 4 40 -6 57 -32 55 -31 -2z"/>
<path d="M510 1539 c0 -10 5 -21 10 -24 6 -3 10 -11 10 -16 0 -6 -4 -7 -10 -4
-5 3 -10 2 -10 -4 0 -5 13 -9 29 -9 27 1 30 5 34 37 l4 36 1 -37 c3 -50 19
-49 24 2 l3 40 -47 -2 c-39 0 -48 -4 -48 -19z"/>
<path d="M636 1529 c-9 -44 -8 -45 14 -45 21 0 24 14 14 54 -9 31 -20 27 -28
-9z"/>
<path d="M681 1518 c0 -33 2 -38 9 -23 12 28 12 65 0 65 -5 0 -10 -19 -9 -42z"/>
<path d="M711 1543 c1 -10 5 -29 9 -43 7 -21 8 -19 9 18 1 23 -3 42 -9 42 -5
0 -10 -8 -9 -17z"/>
<path d="M740 1520 c0 -35 3 -40 23 -40 20 1 20 2 4 11 -14 8 -16 14 -6 25 8
10 8 14 0 14 -6 0 -11 5 -11 10 0 6 9 10 20 10 16 0 20 -7 20 -34 0 -22 6 -36
16 -40 22 -9 24 -8 24 10 0 9 -5 12 -11 8 -8 -5 -10 4 -7 30 4 36 4 36 -34 36
-38 0 -38 0 -38 -40z"/>
<path d="M854 1546 c-3 -8 -4 -25 -2 -38 4 -28 38 -38 38 -11 0 15 -2 16 -10
3 -7 -11 -10 -6 -10 20 0 26 3 31 10 20 8 -13 10 -12 10 3 0 20 -28 23 -36 3z"/>
<path d="M900 1520 c0 -36 2 -39 30 -38 26 1 29 4 24 27 -5 24 -4 24 10 -4
l14 -30 1 45 c1 33 -2 41 -9 30 -5 -8 -10 -10 -10 -4 0 6 -13 11 -30 12 -28 1
-30 -2 -30 -38z"/>
<path d="M990 1544 c0 -7 5 -16 10 -19 6 -3 10 -13 10 -21 0 -8 -4 -12 -10 -9
-5 3 -10 2 -10 -3 0 -5 27 -10 60 -10 49 0 60 3 60 17 0 14 -2 14 -10 1 -7
-11 -10 -6 -10 20 0 26 3 31 10 20 8 -13 10 -13 10 1 0 14 -11 17 -60 17 -43
0 -60 -4 -60 -14z m80 -24 c0 -16 -4 -30 -9 -30 -5 0 -9 14 -9 30 1 17 5 30
10 30 4 0 8 -13 8 -30z"/>
<path d="M1130 1518 l5 -43 3 38 c4 47 22 49 22 2 0 -30 3 -35 23 -35 20 1 20
2 4 11 -14 8 -16 14 -6 25 8 10 8 14 0 14 -6 0 -11 5 -11 10 0 6 9 10 20 10
16 0 20 -7 20 -35 0 -47 20 -45 21 3 l2 37 6 -35 c4 -22 12 -36 24 -38 14 -3
17 4 16 40 l-2 43 -7 -40 -7 -40 -2 38 -1 37 -68 0 -68 0 6 -42z"/>
<path d="M1291 1518 c0 -33 2 -38 9 -23 7 15 9 16 9 4 1 -21 41 -33 41 -12 0
8 -4 11 -10 8 -5 -3 -11 2 -11 12 -1 10 -2 25 -3 33 0 8 -9 16 -18 18 -15 3
-18 -4 -17 -40z"/>
<path d="M1377 1523 c-6 -37 1 -61 11 -34 4 11 6 11 13 0 7 -9 9 -1 7 25 -4
51 -24 57 -31 9z"/>
<path d="M1420 1520 c0 -34 3 -41 18 -38 12 2 17 13 17 38 0 25 -5 36 -17 38
-15 3 -18 -4 -18 -38z"/>
<path d="M1491 1516 c0 -22 3 -34 6 -26 4 8 12 21 20 28 11 11 13 9 13 -11 0
-20 5 -24 30 -25 23 0 30 4 30 18 0 10 -4 22 -10 25 -5 3 -10 11 -10 16 0 6 5
7 10 4 6 -3 10 -2 10 3 0 5 -22 9 -50 9 l-50 0 1 -41z"/>
<path d="M1600 1520 c0 -29 4 -40 15 -40 8 0 15 8 15 18 0 14 -2 15 -10 2 -7
-11 -10 -6 -10 20 0 26 3 31 10 20 8 -13 10 -12 10 3 0 9 -7 17 -15 17 -11 0
-15 -11 -15 -40z"/>
<path d="M1681 1545 c-1 -29 10 -65 20 -65 4 0 10 15 12 33 l4 32 1 -32 c2
-30 3 -31 52 -31 l50 -1 0 35 c0 46 18 44 22 -3 l3 -38 5 43 c5 41 5 42 -22
42 -25 0 -28 -3 -28 -35 0 -19 -4 -35 -10 -35 -5 0 -10 16 -10 35 0 33 -2 35
-35 35 -24 0 -38 -5 -42 -17 -6 -15 -7 -15 -14 3 -7 18 -8 18 -8 -1z m84 -15
c7 -21 0 -40 -15 -40 -5 0 -8 14 -8 30 1 34 14 40 23 10z"/>
<path d="M1900 1541 c0 -11 5 -23 10 -26 6 -3 10 -11 10 -16 0 -6 -4 -7 -10
-4 -5 3 -10 1 -10 -4 0 -6 7 -11 15 -11 17 0 21 35 5 45 -5 3 -10 11 -10 16 0
6 5 7 10 4 6 -3 10 -1 10 4 0 6 -7 11 -15 11 -8 0 -15 -9 -15 -19z"/>
<path d="M1940 1520 c0 -40 0 -40 40 -40 40 0 40 0 40 40 0 40 0 40 -40 40
-40 0 -40 0 -40 -40z m40 0 c0 -29 -9 -38 -23 -23 -4 3 -2 12 4 20 9 10 8 13
0 13 -7 0 -9 5 -6 10 12 20 25 9 25 -20z"/>
<path d="M2050 1521 c0 -31 4 -40 21 -44 15 -4 19 -2 15 10 -3 8 -6 28 -6 44
0 19 -5 29 -15 29 -11 0 -15 -11 -15 -39z"/>
<path d="M2092 1523 c2 -27 8 -39 21 -41 14 -3 17 4 16 40 l-2 43 -6 -40 c-4
-27 -9 -36 -14 -27 -5 7 -6 24 -3 38 4 14 2 24 -4 24 -7 0 -10 -15 -8 -37z"/>
<path d="M2166 1538 c-7 -28 -7 -68 1 -50 4 10 8 10 21 0 14 -12 15 -9 9 21
-4 18 -7 37 -7 42 0 18 -18 8 -24 -13z"/>
<path d="M2220 1520 c0 -22 5 -40 10 -40 6 0 10 6 10 13 0 8 4 7 10 -3 7 -11
10 -3 10 30 0 33 -3 41 -10 30 -6 -10 -10 -11 -10 -2 0 6 -4 12 -10 12 -5 0
-10 -18 -10 -40z"/>
<path d="M2274 1546 c-10 -25 0 -61 19 -64 14 -3 17 4 17 37 0 30 -4 41 -15
41 -9 0 -18 -6 -21 -14z m26 -27 c0 -17 -4 -28 -10 -24 -5 3 -10 17 -10 31 0
13 5 24 10 24 6 0 10 -14 10 -31z"/>
<path d="M2321 1518 c1 -37 2 -39 9 -18 8 24 8 24 9 3 2 -42 21 -23 20 20 0
32 -2 37 -9 22 -7 -17 -9 -17 -9 -2 -1 9 -5 17 -11 17 -5 0 -10 -19 -9 -42z"/>
<path d="M2380 1520 c0 -38 19 -59 21 -22 0 14 2 14 9 -3 7 -16 9 -12 11 20
l2 40 6 -35 c4 -22 12 -36 24 -38 14 -3 17 4 16 40 l-2 43 -7 -40 -7 -40 -2
38 c-1 29 -5 37 -20 37 -11 0 -22 -6 -24 -12 -4 -10 -6 -10 -6 0 -1 6 -5 12
-11 12 -5 0 -10 -18 -10 -40z"/>
<path d="M2481 1518 c0 -33 2 -38 9 -23 12 28 12 65 0 65 -5 0 -10 -19 -9 -42z"/>
<path d="M2507 1523 c-4 -20 -4 -39 -2 -42 3 -2 5 4 6 15 0 18 1 18 9 -1 7
-15 9 -10 9 23 1 52 -14 56 -22 5z"/>
<path d="M2540 1522 c0 -32 4 -41 21 -45 18 -5 20 -1 17 36 -2 30 -8 43 -20
45 -15 3 -18 -4 -18 -36z m30 4 c0 -14 -4 -28 -10 -31 -6 -4 -10 7 -10 24 0
17 5 31 10 31 6 0 10 -11 10 -24z"/>
<path d="M2592 1523 c-2 -32 2 -43 13 -43 11 0 15 11 14 43 l-2 42 -7 -40 -6
-40 -6 40 -5 40 -1 -42z"/>
<path d="M2636 1529 c-9 -44 -8 -45 14 -45 12 0 20 7 20 18 0 9 -6 16 -12 14
-7 -1 -10 -1 -5 1 10 6 9 43 -2 43 -5 0 -11 -14 -15 -31z"/>
<path d="M2681 1518 c1 -24 4 -34 7 -23 5 20 5 20 13 0 8 -20 8 -20 9 0 1 20
1 20 10 0 7 -15 9 -10 9 23 1 44 -15 58 -22 20 l-4 -23 -2 23 c-2 41 -21 22
-20 -20z"/>
<path d="M280 1410 c0 -38 2 -40 30 -40 28 0 30 2 30 40 0 38 -2 40 -30 40
-28 0 -30 -2 -30 -40z m45 20 c8 -13 -3 -50 -15 -50 -5 0 -8 14 -8 30 1 30 11
39 23 20z"/>
<path d="M352 1413 c-2 -32 2 -43 13 -43 11 0 15 11 14 43 l-2 42 -7 -40 -6
-40 -6 40 -5 40 -1 -42z"/>
<path d="M390 1436 c0 -8 5 -18 10 -21 6 -3 10 -13 10 -21 0 -8 -4 -12 -10 -9
-5 3 -10 1 -10 -4 0 -17 30 -13 37 4 3 9 -3 25 -13 36 -16 18 -16 19 -1 13 10
-3 17 -1 17 5 0 6 -9 11 -20 11 -11 0 -20 -6 -20 -14z"/>
<path d="M451 1408 c0 -33 2 -38 9 -23 6 13 9 15 9 5 1 -10 13 -15 41 -17 l40
-1 0 40 c0 32 -3 39 -17 36 -10 -2 -21 -16 -25 -33 l-7 -30 3 33 c3 37 -6 42
-22 10 l-11 -23 0 23 c-1 12 -5 22 -11 22 -5 0 -10 -19 -9 -42z"/>
<path d="M560 1409 c0 -33 3 -40 18 -37 11 2 18 15 21 38 l5 35 6 -40 7 -40 2
41 c1 39 0 41 -29 42 -28 1 -30 -1 -30 -39z"/>
<path d="M648 1410 c2 -22 8 -40 12 -40 4 0 10 18 12 40 3 31 0 40 -12 40 -12
0 -15 -9 -12 -40z"/>
<path d="M690 1410 c0 -32 4 -40 18 -39 10 0 12 3 5 6 -7 2 -13 11 -13 19 0 8
6 14 13 14 8 0 7 4 -3 10 -13 9 -13 11 0 20 13 8 12 10 -2 10 -14 0 -18 -9
-18 -40z"/>
<path d="M731 1408 c0 -33 2 -38 9 -23 8 19 9 19 9 1 1 -11 4 -17 7 -14 8 9
-7 78 -17 78 -5 0 -9 -19 -8 -42z"/>
<path d="M761 1433 c1 -10 5 -29 9 -43 7 -21 8 -19 9 18 1 23 -3 42 -9 42 -5
0 -10 -8 -9 -17z"/>
<path d="M791 1406 c0 -35 2 -38 9 -18 12 27 26 28 33 2 3 -11 12 -20 21 -20
12 0 16 10 16 39 0 38 0 38 -40 38 l-40 0 1 -41z"/>
<path d="M881 1408 c0 -24 3 -36 6 -28 4 8 12 21 20 28 17 17 12 36 -10 40
-14 3 -17 -5 -16 -40z"/>
<path d="M930 1421 c0 -18 -5 -30 -11 -28 -6 1 -14 -4 -16 -10 -6 -16 19 -17
35 -1 9 9 12 9 12 0 0 -7 4 -12 8 -12 5 0 6 17 3 37 -8 46 -31 57 -31 14z"/>
<path d="M1011 1408 c1 -37 2 -39 9 -18 5 16 8 19 9 8 1 -9 6 -20 11 -23 6 -4
10 11 9 37 0 33 -2 38 -9 23 -7 -17 -9 -17 -9 -2 -1 9 -5 17 -11 17 -5 0 -10
-19 -9 -42z"/>
<path d="M1060 1410 l0 -37 50 0 50 0 0 38 0 39 -50 -1 -50 -2 0 -37z m40 8
c0 -5 -7 -16 -15 -24 -13 -14 -15 -12 -15 15 0 23 4 29 15 25 8 -4 15 -10 15
-16z"/>
<path d="M1174 1415 c1 -28 5 -40 16 -40 11 0 15 12 16 40 1 32 1 34 -3 8 -2
-18 -8 -33 -13 -33 -5 0 -11 15 -13 33 -4 26 -4 24 -3 -8z"/>
<path d="M1221 1408 c1 -37 2 -39 9 -18 8 24 8 24 9 3 2 -38 21 -26 21 13 0
20 4 33 10 29 5 -3 7 -19 3 -35 -3 -18 -1 -30 5 -30 5 0 12 18 14 40 l4 40
-38 0 -38 0 1 -42z"/>
<path d="M1322 1413 c2 -27 8 -39 21 -41 14 -3 17 4 17 32 0 20 5 36 10 36 6
0 10 -16 10 -35 0 -48 17 -44 22 5 3 38 2 40 -24 40 -24 0 -27 -4 -31 -37 l-4
-38 -1 38 c-1 20 -7 37 -13 37 -6 0 -9 -16 -7 -37z"/>
<path d="M1430 1410 c0 -36 3 -40 25 -40 14 0 25 5 25 11 0 8 6 7 17 -2 15
-13 16 -11 10 11 -4 14 -7 33 -7 43 0 31 -19 18 -26 -18 -8 -44 -30 -41 -26 3
2 18 -1 32 -7 32 -6 0 -11 -18 -11 -40z"/>
<path d="M1520 1410 c0 -29 4 -40 15 -40 11 0 15 11 15 40 0 29 -4 40 -15 40
-11 0 -15 -11 -15 -40z"/>
<path d="M1562 1413 c2 -26 8 -38 18 -38 10 0 16 12 18 38 3 32 0 37 -18 37
-18 0 -21 -5 -18 -37z"/>
<path d="M1611 1408 c1 -37 2 -39 9 -18 8 24 8 24 9 3 1 -19 7 -23 34 -23 18
0 27 4 20 8 -14 9 -13 54 2 64 5 4 0 8 -12 8 -17 0 -23 -7 -26 -32 l-4 -33 -1
33 c-1 21 -7 32 -17 32 -11 0 -15 -11 -14 -42z"/>
<path d="M1710 1410 c0 -34 3 -40 21 -40 16 0 19 3 12 13 -15 20 -13 57 3 57
9 0 14 -11 14 -35 0 -48 17 -44 22 5 l4 40 -38 0 c-38 0 -38 0 -38 -40z"/>
<path d="M1810 1409 c0 -33 3 -40 18 -37 12 2 18 14 20 41 3 32 0 37 -17 37
-18 0 -21 -6 -21 -41z"/>
<path d="M1860 1409 c0 -33 3 -40 18 -37 11 2 19 16 23 38 l6 35 2 -36 c1 -35
3 -37 36 -37 34 0 35 1 35 40 0 32 -3 39 -17 36 -12 -2 -19 -14 -21 -36 -4
-42 -22 -41 -22 1 0 31 -3 34 -30 35 -28 1 -30 -1 -30 -39z"/>
<path d="M1991 1408 c1 -24 3 -35 6 -25 2 9 9 17 14 17 6 0 8 -4 4 -9 -3 -5
-1 -12 4 -16 6 -3 9 10 7 32 -1 27 -7 39 -19 41 -14 3 -17 -4 -16 -40z"/>
<path d="M2040 1410 c0 -29 4 -40 15 -40 8 0 15 5 15 11 0 5 -4 7 -10 4 -5 -3
-10 1 -10 9 0 9 6 16 13 16 8 0 7 4 -3 10 -13 9 -13 11 0 20 13 8 12 10 -2 10
-14 0 -18 -9 -18 -40z"/>
<path d="M2090 1410 c0 -33 3 -40 20 -40 22 0 25 16 10 54 -14 39 -30 31 -30
-14z"/>
<path d="M2134 1419 c3 -17 6 -35 6 -40 0 -5 7 -9 15 -9 8 0 15 6 15 13 0 8 2
9 8 1 4 -7 18 -11 32 -10 18 1 26 7 28 24 2 12 -2 22 -8 22 -7 0 -10 -7 -6
-15 3 -8 1 -15 -4 -15 -6 0 -10 12 -10 26 0 19 4 25 15 20 8 -3 15 -1 15 4 0
6 -9 10 -19 10 -15 0 -21 -8 -24 -37 l-4 -38 -1 38 c-1 25 -7 37 -16 37 -10 0
-16 -13 -19 -37 l-4 -38 -1 38 c-1 20 -7 37 -13 37 -8 0 -9 -11 -5 -31z"/>
<path d="M2251 1405 c1 -35 2 -37 9 -15 8 24 8 24 9 3 1 -24 25 -31 37 -12 4
8 9 7 15 -2 10 -17 13 30 3 55 -10 26 -24 18 -24 -14 0 -34 -15 -40 -23 -10
-3 11 -1 18 4 14 5 -3 9 2 9 10 0 9 -8 14 -20 13 -17 -1 -20 -8 -19 -42z"/>
<path d="M2341 1408 c1 -37 2 -39 9 -18 12 36 12 60 0 60 -5 0 -10 -19 -9 -42z"/>
<path d="M2365 1414 c-3 -20 -4 -39 -1 -42 3 -3 6 3 7 14 0 18 1 18 9 -1 7
-15 9 -10 9 23 1 51 -14 56 -24 6z"/>
<path d="M2426 1434 c-3 -9 -6 -28 -5 -42 0 -15 3 -21 6 -14 4 10 8 10 21 0
13 -11 15 -10 9 12 -4 14 -7 33 -7 43 0 21 -16 22 -24 1z"/>
<path d="M2464 1434 c3 -9 6 -27 6 -40 0 -19 5 -24 25 -24 23 0 25 4 25 40 0
22 -4 40 -10 40 -5 0 -10 -16 -10 -35 0 -19 -4 -35 -10 -35 -5 0 -10 16 -10
35 0 19 -5 35 -11 35 -6 0 -8 -7 -5 -16z"/>
<path d="M2530 1411 c0 -28 5 -40 18 -43 15 -4 17 1 13 39 -4 57 -31 61 -31 4z"/>
<path d="M2572 1413 c3 -33 7 -38 28 -39 14 -1 28 3 32 10 6 8 8 7 8 -1 0 -22
28 -14 33 10 l4 22 2 -22 c1 -16 7 -23 21 -23 17 0 20 7 20 40 0 44 -6 49 -26
23 -13 -17 -13 -17 -14 0 0 30 -19 18 -23 -15 l-4 -33 -1 33 c-2 44 -25 38
-33 -9 l-6 -34 -3 40 -3 40 -7 -40 c-5 -31 -8 -36 -14 -22 -5 9 -6 26 -3 37 3
11 1 20 -5 20 -5 0 -8 -17 -6 -37z"/>
<path d="M367 1344 c-4 -4 -7 -24 -7 -45 0 -28 5 -38 19 -42 17 -4 19 0 16 32
-4 32 -4 33 3 6 11 -45 37 -39 38 10 l2 40 -8 -40 c-7 -40 -14 -31 -10 14 1
17 -2 22 -13 18 -8 -3 -19 -1 -24 4 -5 5 -12 6 -16 3z"/>
<path d="M735 1340 c-4 -6 -11 -8 -16 -4 -6 3 -7 -5 -4 -23 11 -48 14 -53 30
-53 11 0 15 11 15 39 0 40 -13 61 -25 41z"/>
<path d="M2150 1335 c-17 -20 -9 -69 13 -73 14 -3 17 4 17 37 0 44 -11 58 -30
36z"/>
<path d="M2269 1348 c-1 -2 -3 -22 -4 -45 -2 -31 1 -43 10 -43 23 0 28 20 11
39 -21 23 -20 32 2 24 15 -6 15 -5 3 10 -13 16 -19 20 -22 15z"/>
<path d="M2376 1343 c-3 -3 -6 -23 -6 -44 0 -37 0 -38 37 -35 38 2 57 26 34
41 -17 10 -13 21 8 22 16 1 21 -6 23 -35 l3 -37 5 43 6 43 -41 -2 c-22 -2 -46
0 -52 4 -5 3 -13 4 -17 0z"/>
<path d="M456 1324 c-3 -9 -6 -28 -5 -42 0 -15 3 -21 6 -14 2 6 10 9 16 5 16
-10 65 -16 51 -6 -17 11 -15 63 2 63 9 0 14 -13 15 -37 1 -30 3 -32 7 -13 l5
25 8 -25 c6 -21 7 -18 8 18 l1 42 -39 0 c-37 0 -40 -2 -44 -32 l-4 -33 -1 33
c-2 34 -16 43 -26 16z"/>
<path d="M592 1315 c3 -13 1 -22 -3 -19 -5 3 -9 -5 -9 -18 0 -19 2 -20 10 -8
9 13 11 13 21 0 8 -11 9 -7 5 19 -3 18 -6 37 -6 42 0 5 -5 9 -11 9 -7 0 -9
-10 -7 -25z"/>
<path d="M628 1300 c2 -22 8 -40 12 -40 4 0 10 18 12 40 3 31 0 40 -12 40 -12
0 -15 -9 -12 -40z"/>
<path d="M680 1323 c0 -29 12 -63 21 -63 15 0 10 50 -6 66 -13 14 -15 13 -15
-3z"/>
<path d="M770 1300 c0 -29 4 -40 15 -40 8 0 15 5 15 10 0 6 -5 10 -11 10 -7 0
-10 12 -7 30 3 17 1 30 -4 30 -4 0 -8 -18 -8 -40z"/>
<path d="M811 1302 c-1 -41 0 -43 26 -40 17 2 33 12 40 27 21 38 16 51 -17 51
-28 0 -30 -3 -31 -37 l-2 -38 -7 40 -7 40 -2 -43z"/>
<path d="M910 1297 l5 -42 3 38 c2 20 8 37 14 37 7 0 8 -13 5 -36 -5 -29 -4
-34 8 -24 10 8 14 8 18 -2 3 -7 6 4 6 25 1 20 5 37 10 37 6 0 11 -17 13 -37
l3 -38 5 41 5 42 -50 1 -50 0 5 -42z"/>
<path d="M1020 1300 c0 -29 4 -40 15 -40 18 0 20 16 3 23 -10 4 -10 8 1 15 11
8 11 10 0 15 -12 4 -11 7 1 16 13 9 13 11 -2 11 -14 0 -18 -9 -18 -40z"/>
<path d="M1061 1298 c1 -24 4 -34 7 -23 5 20 5 20 13 0 8 -20 8 -20 9 0 1 20
1 20 10 0 7 -15 9 -10 9 23 1 44 -15 58 -22 20 l-4 -23 -2 23 c-2 41 -21 22
-20 -20z"/>
<path d="M1161 1302 c-1 -36 2 -43 17 -40 11 2 19 16 23 38 l6 35 2 -37 c1
-50 18 -49 23 2 3 38 2 40 -24 40 -25 0 -28 -4 -29 -32 l-2 -33 -7 35 -7 35
-2 -43z"/>
<path d="M1260 1300 c0 -34 3 -40 21 -40 16 0 19 3 12 13 -14 16 -13 50 1 59
6 5 1 8 -11 8 -20 0 -23 -5 -23 -40z"/>
<path d="M1311 1295 c0 -31 2 -36 9 -20 6 14 9 15 9 5 1 -9 10 -16 21 -16 16
0 20 7 20 38 0 36 -2 38 -30 36 -28 -2 -30 -5 -29 -43z"/>
<path d="M1380 1298 c0 -32 3 -39 10 -28 8 12 10 12 10 1 0 -8 3 -12 6 -9 8 9
-7 78 -17 78 -5 0 -9 -19 -9 -42z"/>
<path d="M1411 1323 c1 -10 5 -29 9 -43 7 -21 8 -19 9 18 1 23 -3 42 -9 42 -5
0 -10 -8 -9 -17z"/>
<path d="M1458 1303 c-5 -39 1 -59 10 -34 4 11 6 11 13 0 6 -9 9 1 9 29 0 55
-26 59 -32 5z"/>
<path d="M1500 1299 c0 -33 3 -40 18 -37 12 2 18 14 20 41 3 32 0 37 -17 37
-18 0 -21 -6 -21 -41z"/>
<path d="M1566 1303 c1 -27 6 -37 19 -39 14 -2 16 3 11 28 -3 17 -6 34 -6 39
0 5 -6 9 -12 9 -8 0 -13 -13 -12 -37z"/>
<path d="M1601 1323 c1 -10 5 -29 9 -43 7 -21 8 -19 9 18 1 23 -3 42 -9 42 -5
0 -10 -8 -9 -17z"/>
<path d="M1651 1298 c1 -37 2 -39 9 -18 5 16 8 19 9 8 1 -9 6 -20 11 -23 6 -4
10 11 9 37 0 33 -2 38 -9 23 -7 -17 -9 -17 -9 -2 -1 9 -5 17 -11 17 -5 0 -10
-19 -9 -42z"/>
<path d="M1721 1298 c1 -37 2 -39 9 -18 12 36 12 60 0 60 -5 0 -10 -19 -9 -42z"/>
<path d="M1745 1304 c-3 -20 -4 -39 -1 -42 3 -3 6 6 7 19 l1 24 8 -25 c7 -21
8 -19 9 18 1 51 -14 56 -24 6z"/>
<path d="M1794 1314 c5 -17 3 -23 -4 -19 -6 4 -10 -3 -9 -17 0 -13 3 -17 6
-10 4 10 8 10 21 0 14 -12 15 -9 9 21 -4 18 -7 37 -7 42 0 5 -5 9 -11 9 -7 0
-9 -10 -5 -26z"/>
<path d="M1846 1303 c7 -42 11 -49 20 -41 8 9 -7 78 -18 78 -5 0 -6 -16 -2
-37z"/>
<path d="M1890 1300 c0 -29 4 -40 15 -40 18 0 20 16 3 23 -10 4 -10 8 1 15 11
8 11 10 0 15 -12 4 -11 7 1 16 13 9 13 11 -2 11 -14 0 -18 -9 -18 -40z"/>
<path d="M1930 1298 c0 -49 5 -47 14 5 4 23 3 37 -4 37 -5 0 -10 -19 -10 -42z"/>
<path d="M1955 1309 c-4 -18 -3 -35 4 -42 8 -8 11 0 11 31 0 50 -6 54 -15 11z"/>
<path d="M2006 1318 c-7 -28 -7 -68 1 -50 4 10 8 10 21 0 13 -11 15 -10 9 12
-4 14 -7 33 -7 43 0 25 -17 21 -24 -5z"/>
<path d="M2048 1302 c2 -25 9 -39 18 -39 8 0 14 7 15 16 0 12 3 11 9 -4 7 -15
9 -10 9 23 1 23 -3 42 -9 42 -5 0 -10 -10 -11 -22 l0 -23 -9 23 c-14 34 -26
26 -22 -16z"/>
<path d="M2194 1305 c1 -28 5 -40 16 -40 11 0 15 12 16 40 1 32 1 34 -3 8 -2
-18 -8 -33 -13 -33 -5 0 -11 15 -13 33 -4 26 -4 24 -3 -8z"/>
<path d="M2320 1298 c0 -49 5 -47 14 5 4 23 3 37 -4 37 -5 0 -10 -19 -10 -42z"/>
<path d="M2345 1309 c-4 -18 -3 -35 4 -42 8 -8 11 0 11 31 0 50 -6 54 -15 11z"/>
<path d="M2501 1298 c1 -37 2 -39 9 -18 7 22 8 23 9 4 1 -16 8 -21 31 -22 29
-1 30 1 29 41 l-2 42 -7 -40 -7 -40 -2 38 c-1 43 -18 50 -24 10 l-4 -28 -2 28
c0 17 -7 27 -16 27 -11 0 -15 -11 -14 -42z"/>
<path d="M2591 1298 c1 -37 2 -39 9 -18 12 36 12 60 0 60 -5 0 -10 -19 -9 -42z"/>
<path d="M2615 1304 c-3 -20 -4 -39 -1 -42 3 -3 6 3 7 14 0 18 1 18 9 -1 7
-15 9 -10 9 23 1 51 -14 56 -24 6z"/>
<path d="M563 1224 c-2 -7 -3 -25 -1 -40 2 -23 8 -29 31 -31 25 -2 27 1 27 33
0 19 5 34 11 34 7 0 9 -12 7 -30 -3 -17 -1 -33 3 -35 4 -3 9 13 11 34 l3 39
-44 4 c-27 2 -45 -1 -48 -8z m37 -29 c0 -7 -7 -15 -15 -19 -11 -4 -15 1 -15
19 0 18 4 23 15 19 8 -4 15 -12 15 -19z"/>
<path d="M776 1233 c-3 -3 -6 -24 -6 -45 0 -27 4 -38 15 -38 11 0 15 11 15 39
0 38 -10 57 -24 44z"/>
<path d="M1234 1226 c-3 -8 -4 -27 -2 -43 3 -25 7 -28 38 -28 31 0 35 3 38 28
5 42 -5 62 -22 48 -10 -8 -16 -9 -21 -1 -9 14 -25 13 -31 -4z m36 -31 c0 -7
-7 -15 -15 -19 -11 -4 -15 1 -15 19 0 18 4 23 15 19 8 -4 15 -12 15 -19z"/>
<path d="M1417 1233 c-4 -3 -7 -23 -7 -44 0 -36 2 -38 30 -36 22 1 30 7 31 22
1 17 2 16 9 -5 7 -21 8 -19 9 18 1 34 -2 42 -17 42 -14 0 -18 -7 -17 -27 2
-17 1 -20 -2 -6 -5 24 -26 46 -36 36z"/>
<path d="M1524 1225 c-4 -9 -2 -21 5 -28 14 -14 14 -30 0 -21 -7 4 -10 1 -7
-6 7 -21 27 -24 34 -5 4 9 -2 25 -12 37 -18 20 -18 21 -1 15 12 -5 17 -3 15 5
-7 19 -27 21 -34 3z"/>
<path d="M1584 1226 c-4 -10 2 -26 12 -38 17 -19 17 -21 2 -15 -20 7 -25 -8
-7 -19 20 -12 35 14 21 36 -15 25 -15 27 3 27 10 0 15 -11 15 -34 0 -23 5 -33
15 -33 11 0 15 11 14 43 l-2 42 -7 -40 -7 -40 -2 38 c0 20 -5 37 -10 37 -5 0
-16 3 -25 6 -10 4 -18 0 -22 -10z"/>
<path d="M1674 1225 c-4 -9 -2 -21 5 -28 14 -14 14 -30 0 -21 -7 4 -10 1 -7
-7 3 -8 18 -14 38 -14 20 0 35 6 38 14 3 8 0 11 -7 7 -7 -5 -11 2 -11 19 0 15
4 24 10 20 6 -3 10 -2 10 4 0 15 -14 21 -30 11 -9 -5 -19 -5 -27 2 -9 7 -14 6
-19 -7z"/>
<path d="M2046 1233 c-3 -3 -6 -24 -6 -45 0 -27 4 -38 15 -38 11 0 15 11 15
39 0 38 -10 57 -24 44z"/>
<path d="M2157 1233 c-4 -3 -7 -24 -7 -45 l0 -38 45 4 c25 3 49 8 55 11 5 3
10 1 10 -4 0 -22 30 -10 31 12 1 21 1 22 7 1 4 -13 14 -20 25 -18 9 1 17 -3
17 -9 0 -7 5 -6 13 2 10 11 10 14 0 18 -7 3 -13 18 -13 34 0 32 -25 41 -33 12
-4 -17 -5 -17 -6 0 -2 30 -20 19 -24 -15 l-4 -33 -1 33 c-3 44 -32 45 -32 0 0
-30 -1 -31 -15 -12 -17 22 -20 38 -5 29 6 -3 10 -2 10 4 0 15 -14 21 -30 11
-8 -5 -19 -5 -26 0 -6 6 -14 7 -17 3z"/>
<path d="M2448 1233 c-14 -3 -18 -14 -17 -46 l2 -42 6 37 6 36 19 -26 c18 -23
18 -25 2 -19 -11 5 -16 3 -14 -5 7 -19 27 -21 34 -3 4 9 -2 25 -12 36 -19 21
-18 21 1 18 14 -3 22 -15 26 -39 l6 -35 2 43 c0 23 -3 42 -8 42 -5 0 -15 2
-23 4 -7 2 -21 2 -30 -1z"/>
<path d="M380 1190 c0 -38 2 -40 30 -40 17 0 30 5 30 13 0 9 2 9 9 -1 4 -8 23
-12 44 -10 29 2 37 6 38 23 1 17 2 16 9 -5 7 -21 8 -19 9 18 l1 42 -50 0 c-33
0 -50 -4 -50 -12 0 -9 -3 -8 -10 2 -6 10 -9 5 -8 -18 1 -38 -3 -44 -22 -31
-13 7 -13 10 -1 18 11 7 11 9 0 14 -12 4 -11 7 1 16 12 9 11 11 -7 11 -20 0
-23 -5 -23 -40z"/>
<path d="M666 1199 c-9 -44 -7 -56 4 -39 9 13 11 13 20 0 8 -12 10 -12 10 5 0
29 -11 65 -20 65 -4 0 -10 -14 -14 -31z"/>
<path d="M708 1190 c5 -50 20 -52 25 -2 l4 37 1 -37 c3 -51 22 -49 22 2 0 37
-2 40 -28 40 -26 0 -27 -2 -24 -40z"/>
<path d="M810 1188 c0 -49 5 -47 14 5 4 23 3 37 -4 37 -5 0 -10 -19 -10 -42z"/>
<path d="M835 1199 c-4 -18 -3 -35 4 -42 8 -8 11 0 11 31 0 50 -6 54 -15 11z"/>
<path d="M860 1190 c0 -29 4 -40 15 -40 18 0 20 16 3 23 -10 4 -9 8 2 16 10 7
11 11 3 11 -7 0 -13 5 -13 10 0 6 7 10 15 10 10 0 15 -11 16 -37 1 -34 2 -35
9 -13 16 49 12 60 -20 60 -28 0 -30 -2 -30 -40z"/>
<path d="M925 1194 c-3 -20 -4 -39 -1 -42 3 -3 6 1 6 9 0 12 2 12 9 0 6 -9 10
0 13 28 5 52 -17 56 -27 5z"/>
<path d="M984 1195 c1 -54 30 -56 34 -2 2 20 -1 37 -6 37 -5 0 -7 -13 -4 -30
2 -17 0 -30 -6 -30 -6 0 -13 15 -15 33 -4 26 -4 24 -3 -8z"/>
<path d="M1032 1194 l-2 -42 40 0 c22 0 43 4 46 10 4 6 10 5 16 -3 6 -9 8 -1
6 25 -4 48 -28 62 -28 17 0 -21 -5 -31 -15 -31 -10 0 -15 10 -15 30 0 17 -4
30 -10 30 -5 0 -10 -13 -10 -30 0 -40 -18 -38 -23 3 -3 29 -4 28 -5 -9z"/>
<path d="M1151 1188 c1 -37 2 -39 9 -18 12 36 12 60 0 60 -5 0 -10 -19 -9 -42z"/>
<path d="M1175 1194 c-3 -20 -4 -39 -1 -42 3 -3 6 3 7 14 0 18 1 18 9 -1 7
-15 9 -10 9 23 1 51 -14 56 -24 6z"/>
<path d="M1321 1188 c1 -36 2 -39 9 -18 5 16 8 19 9 8 1 -9 5 -19 10 -23 6 -3
9 11 7 32 -1 27 -7 39 -19 41 -14 3 -17 -4 -16 -40z"/>
<path d="M1371 1188 c1 -24 4 -33 6 -20 2 12 9 22 14 22 5 0 9 9 9 20 0 11 -7
20 -15 20 -11 0 -15 -11 -14 -42z"/>
<path d="M1781 1186 c0 -33 2 -37 9 -20 13 34 30 39 30 10 0 -40 18 -31 23 12
l4 37 1 -37 c3 -50 19 -49 24 2 l3 40 -47 -2 -48 -1 1 -41z"/>
<path d="M1900 1190 c0 -36 3 -40 24 -40 14 0 28 5 32 11 4 8 9 7 15 -2 6 -10
9 -6 9 13 0 55 -26 81 -32 31 -4 -39 -28 -42 -28 -4 0 17 -4 31 -10 31 -5 0
-10 -18 -10 -40z"/>
<path d="M1990 1189 c0 -33 3 -40 18 -37 12 2 18 14 19 41 2 31 -1 37 -17 37
-17 0 -20 -7 -20 -41z"/>
<path d="M2081 1188 c1 -24 3 -35 6 -25 2 9 8 17 13 17 5 0 10 -8 13 -17 2
-10 4 1 4 25 1 35 -3 42 -18 42 -16 0 -19 -7 -18 -42z"/>
<path d="M2380 1189 c0 -23 4 -38 10 -34 5 3 7 13 4 23 -3 9 2 6 10 -8 15 -25
15 -25 15 20 1 33 -2 41 -9 30 -6 -10 -10 -11 -10 -2 0 6 -4 12 -10 12 -5 0
-10 -18 -10 -41z"/>
<path d="M2532 1193 c2 -27 8 -39 21 -41 14 -3 17 4 17 32 0 20 5 36 10 36 6
0 10 -16 10 -35 0 -48 17 -44 22 5 3 38 2 40 -24 40 -24 0 -27 -4 -31 -37 l-4
-38 -1 38 c-1 20 -7 37 -13 37 -6 0 -9 -16 -7 -37z"/>
<path d="M376 1119 c-11 -37 -15 -79 -6 -79 6 0 10 4 10 10 0 6 10 5 25 -2 31
-14 33 -12 27 35 -5 46 -21 49 -23 5 l-2 -33 -4 30 c-5 35 -20 55 -27 34z"/>
<path d="M468 1123 c-13 -3 -18 -15 -18 -41 0 -34 2 -37 31 -39 29 -2 30 -1
27 39 -3 42 -10 49 -40 41z"/>
<path d="M657 1123 c-4 -3 -7 -24 -7 -45 0 -27 4 -38 15 -38 18 0 20 16 3 23
-10 4 -9 8 2 16 10 7 11 11 3 11 -7 0 -13 5 -13 10 0 6 10 10 21 10 19 0 21
-4 16 -36 -5 -29 -4 -34 8 -24 10 8 14 8 17 -2 3 -7 5 10 5 37 0 28 -2 45 -4
38 -3 -9 -12 -9 -29 -2 -30 11 -29 11 -37 2z"/>
<path d="M760 1085 c0 -33 4 -45 15 -45 18 0 20 16 3 23 -10 4 -10 8 1 15 11
8 11 11 0 16 -11 5 -11 7 -1 12 17 8 15 24 -3 24 -11 0 -15 -12 -15 -45z"/>
<path d="M806 1115 c-3 -9 -6 -31 -5 -48 0 -18 3 -26 6 -19 4 10 8 10 20 1 13
-11 14 -8 8 27 -9 46 -20 62 -29 39z"/>
<path d="M867 1123 c-11 -10 -8 -71 3 -78 6 -4 17 -1 25 5 11 9 15 9 15 1 0
-6 7 -11 15 -11 11 0 15 11 15 38 0 44 -8 56 -26 41 -8 -7 -14 -7 -19 1 -7 12
-19 13 -28 3z m28 -38 c0 -10 -6 -20 -12 -22 -8 -3 -13 5 -13 22 0 17 5 25 13
23 6 -3 12 -13 12 -23z"/>
<path d="M1074 1107 c-8 -35 -1 -62 16 -62 11 0 15 11 15 39 0 45 -21 60 -31
23z"/>
<path d="M1204 1117 c-10 -26 0 -72 15 -72 8 0 16 6 19 14 3 8 0 11 -7 7 -7
-5 -11 2 -11 19 0 17 4 24 11 19 7 -4 10 -1 7 6 -6 20 -27 24 -34 7z"/>
<path d="M1254 1116 c-3 -8 -4 -27 -2 -43 2 -23 8 -28 31 -28 18 -1 27 4 28
15 0 10 3 9 9 -5 7 -16 9 -11 9 20 1 32 -3 41 -17 42 -15 1 -18 -5 -15 -30 3
-35 -2 -28 -11 16 -7 29 -23 36 -32 13z"/>
<path d="M1344 1115 c-4 -9 2 -25 12 -37 18 -20 18 -21 1 -15 -12 5 -17 3 -15
-5 7 -19 27 -21 34 -3 4 9 -2 25 -12 37 -18 20 -18 21 -1 15 12 -5 17 -3 15 5
-7 19 -27 21 -34 3z"/>
<path d="M1436 1123 c-3 -3 -6 -24 -6 -45 0 -30 4 -38 18 -38 14 0 17 7 14 40
-4 40 -13 55 -26 43z"/>
<path d="M1697 1123 c-10 -10 -8 -25 2 -18 6 3 8 -10 6 -32 -3 -21 -2 -29 1
-18 4 11 11 26 16 32 18 22 -6 56 -25 36z"/>
<path d="M1754 1117 c-11 -29 0 -72 19 -75 16 -3 18 2 15 39 -3 43 -23 64 -34
36z"/>
<path d="M1858 1123 c-13 -3 -18 -15 -18 -42 0 -34 2 -37 27 -36 28 0 44 27
24 40 -6 3 -11 11 -11 16 0 6 5 7 11 3 7 -4 10 -1 7 6 -5 16 -16 19 -40 13z"/>
<path d="M1938 1124 c-3 -5 -9 -27 -12 -48 -7 -35 -6 -38 7 -27 12 9 16 9 20
-1 3 -7 6 3 6 22 1 36 -13 69 -21 54z"/>
<path d="M1974 1090 c1 -33 5 -45 16 -45 10 0 16 12 18 33 2 17 8 32 14 32 6
0 8 -12 5 -30 -4 -16 -2 -32 2 -35 5 -2 11 13 13 35 3 38 2 40 -24 40 -25 0
-28 -4 -29 -32 -2 -32 -2 -32 -9 7 l-8 40 2 -45z"/>
<path d="M2511 1093 c-1 -39 18 -71 27 -44 3 9 7 9 18 0 11 -9 14 -7 15 12 l1
24 8 -25 c7 -21 8 -19 9 18 1 40 0 42 -29 42 -27 0 -30 -3 -31 -32 -2 -32 -2
-32 -9 7 l-7 40 -2 -42z"/>
<path d="M2607 1123 c-4 -3 -7 -24 -7 -45 0 -31 3 -38 20 -38 11 0 20 5 20 10
0 6 -7 10 -15 10 -18 0 -20 16 -2 23 10 4 10 6 0 6 -19 1 -16 21 3 21 8 0 12
5 9 10 -7 12 -19 13 -28 3z"/>
<path d="M523 1085 c2 -36 4 -40 30 -40 25 -1 27 2 27 37 0 31 -4 38 -20 38
-16 0 -20 -7 -21 -32 l-2 -33 -7 35 -8 35 1 -40z"/>
<path d="M590 1080 c0 -46 25 -57 36 -15 8 32 -1 55 -21 55 -11 0 -15 -11 -15
-40z"/>
<path d="M951 1078 c1 -37 2 -39 9 -18 12 36 12 60 0 60 -5 0 -10 -19 -9 -42z"/>
<path d="M975 1084 c-3 -20 -4 -39 -1 -42 3 -3 6 3 7 14 0 18 1 18 9 -1 7 -15
9 -10 9 23 1 51 -14 56 -24 6z"/>
<path d="M1011 1078 c1 -37 2 -39 9 -18 12 36 12 60 0 60 -5 0 -10 -19 -9 -42z"/>
<path d="M1040 1094 c-13 -33 -13 -65 -1 -45 7 11 9 11 14 0 3 -8 6 5 6 29 1
48 -5 53 -19 16z"/>
<path d="M1120 1080 c0 -37 1 -39 30 -37 28 2 30 5 30 40 0 35 -2 37 -30 37
-28 0 -30 -2 -30 -40z"/>
<path d="M1390 1080 c0 -29 4 -40 15 -40 18 0 20 16 3 23 -10 4 -10 8 1 15 11
8 11 10 0 15 -12 4 -11 7 1 16 13 9 13 11 -2 11 -14 0 -18 -9 -18 -40z"/>
<path d="M1472 1083 c4 -54 33 -52 34 2 1 33 1 34 -3 7 -2 -18 -9 -30 -14 -27
-5 4 -6 17 -3 31 4 15 2 24 -6 24 -7 0 -10 -14 -8 -37z"/>
<path d="M1526 1104 c-3 -9 -6 -28 -5 -42 0 -15 3 -21 6 -14 4 10 8 10 21 0
13 -11 15 -10 9 5 -4 10 -7 30 -7 43 0 27 -15 32 -24 8z"/>
<path d="M1604 1085 c1 -54 30 -56 34 -2 2 20 -1 37 -6 37 -5 0 -7 -13 -4 -30
2 -17 0 -30 -6 -30 -6 0 -13 15 -15 33 -4 26 -4 24 -3 -8z"/>
<path d="M1651 1078 c1 -30 3 -36 7 -18 l5 25 8 -25 c6 -21 7 -18 8 18 1 31
-3 42 -14 42 -11 0 -15 -11 -14 -42z"/>
<path d="M1802 1083 c-2 -32 2 -43 13 -43 11 0 15 11 14 43 l-2 42 -7 -35 -7
-35 -5 35 c-5 35 -5 34 -6 -7z"/>
<path d="M2060 1080 c0 -29 4 -40 15 -40 18 0 20 16 3 23 -10 4 -10 8 1 15 11
8 11 10 0 15 -12 4 -11 7 1 16 13 9 13 11 -2 11 -14 0 -18 -9 -18 -40z"/>
<path d="M2101 1078 c1 -24 4 -34 7 -23 5 20 5 20 13 0 8 -20 8 -20 9 0 1 20
1 20 10 0 7 -15 9 -10 9 23 1 44 -15 58 -22 20 l-4 -23 -2 23 c-2 41 -21 22
-20 -20z"/>
<path d="M2179 1083 c8 -46 24 -46 32 -1 l6 33 2 -37 c1 -37 2 -38 41 -38 22
0 40 5 40 10 0 6 -4 10 -10 10 -5 0 -10 14 -10 30 0 28 -2 30 -39 30 -33 0
-40 -4 -44 -22 l-4 -23 -2 23 c0 12 -5 22 -9 22 -5 0 -6 -17 -3 -37z m81 -3
c0 -22 -4 -28 -15 -24 -17 7 -20 24 -4 24 8 0 8 5 -1 15 -10 12 -10 15 4 15
11 0 16 -9 16 -30z"/>
<path d="M2320 1080 c0 -29 4 -40 15 -40 18 0 20 16 3 23 -10 4 -9 8 2 16 10
7 11 11 3 11 -7 0 -13 5 -13 10 0 6 6 10 14 10 9 0 16 -12 18 -32 5 -50 33
-44 34 7 1 32 1 34 -3 8 -5 -41 -23 -43 -23 -3 0 25 -4 30 -25 30 -22 0 -25
-4 -25 -40z"/>
<path d="M2411 1078 c0 -33 2 -38 9 -23 8 19 9 19 9 1 1 -11 4 -17 7 -14 8 9
-7 78 -17 78 -5 0 -9 -19 -8 -42z"/>
<path d="M2441 1103 c1 -10 5 -29 9 -43 7 -21 8 -19 9 18 1 23 -3 42 -9 42 -5
0 -10 -8 -9 -17z"/>
<path d="M267 1014 c-11 -11 -8 -72 3 -79 6 -3 10 4 11 17 1 23 1 23 9 -2 7
-20 8 -16 7 19 -2 42 -14 60 -30 45z"/>
<path d="M314 1005 c-3 -7 -4 -26 -2 -42 4 -36 46 -47 55 -14 3 12 9 21 14 21
11 0 12 40 2 41 -5 0 -21 2 -36 4 -17 2 -30 -1 -33 -10z m36 -30 c0 -16 -6
-25 -15 -25 -8 0 -15 5 -15 10 0 6 5 10 11 10 8 0 8 5 -1 15 -10 12 -10 15 4
15 10 0 16 -9 16 -25z"/>
<path d="M401 973 c1 -39 3 -43 9 -23 5 14 8 18 9 9 2 -32 80 -32 82 0 1 9 4
5 9 -9 6 -20 8 -14 8 25 0 39 -2 45 -8 25 -5 -14 -8 -18 -9 -9 -1 17 -37 32
-53 23 -4 -3 -9 -20 -9 -37 l-2 -32 -6 34 c-10 55 -31 51 -30 -6z"/>
<path d="M537 1013 c-10 -9 -9 -71 1 -77 5 -3 18 -3 29 0 15 4 20 12 17 27 -3
15 0 13 10 -8 l15 -30 0 45 c1 29 -2 40 -8 31 -5 -7 -10 -9 -12 -3 -5 12 -44
24 -52 15z m33 -38 c0 -16 -6 -25 -15 -25 -8 0 -15 5 -15 10 0 6 5 10 11 10 8
0 8 5 -1 15 -10 12 -10 15 4 15 10 0 16 -9 16 -25z"/>
<path d="M624 1006 c-10 -26 0 -71 16 -71 22 0 27 70 5 79 -9 3 -18 0 -21 -8z"/>
<path d="M670 975 c0 -33 4 -45 15 -45 18 0 20 16 3 23 -10 4 -10 8 1 15 11 8
11 11 0 16 -11 5 -11 7 -1 12 17 8 15 24 -3 24 -11 0 -15 -12 -15 -45z"/>
<path d="M711 974 c1 -40 3 -44 9 -24 5 14 8 18 9 9 1 -9 10 -19 21 -22 17 -4
20 0 20 34 0 27 -4 39 -14 39 -8 0 -21 3 -30 6 -13 5 -16 -2 -15 -42z"/>
<path d="M784 1004 c3 -9 6 -30 6 -46 0 -42 6 -33 13 20 4 33 2 42 -10 42 -10
0 -13 -6 -9 -16z"/>
<path d="M834 996 c-3 -13 -3 -34 1 -45 5 -17 13 -21 43 -18 37 2 37 3 38 47
1 39 1 40 -3 8 -2 -21 -9 -38 -15 -38 -6 0 -8 13 -6 30 3 17 1 30 -4 30 -4 0
-9 -17 -9 -37 l-2 -38 -6 39 c-7 46 -28 58 -37 22z"/>
<path d="M991 975 l1 -50 9 39 c6 26 6 43 -1 50 -7 7 -10 -6 -9 -39z"/>
<path d="M1015 984 c-4 -22 -2 -41 4 -47 8 -8 11 3 11 36 0 56 -5 60 -15 11z"/>
<path d="M1060 975 c0 -46 10 -54 40 -35 9 6 19 5 28 -2 11 -10 12 -5 6 28 -3
21 -9 43 -12 48 -7 12 -22 -15 -22 -41 0 -14 -6 -23 -15 -23 -8 0 -15 5 -15
10 0 6 6 10 13 10 8 0 7 4 -3 11 -11 8 -12 12 -2 16 17 7 15 23 -3 23 -11 0
-15 -12 -15 -45z"/>
<path d="M1161 1009 c-2 -28 11 -79 20 -79 5 0 9 12 10 28 l1 27 10 -28 c13
-36 32 -30 36 13 4 37 -14 63 -27 41 -7 -11 -9 -11 -14 0 -4 10 -6 9 -6 -3 -1
-10 -5 -18 -10 -18 -5 0 -12 8 -14 18 -4 14 -5 14 -6 1z"/>
<path d="M1252 978 c-2 -37 2 -48 13 -48 8 0 15 5 15 10 0 6 -4 10 -9 10 -6 0
-12 17 -14 38 -3 34 -4 33 -5 -10z"/>
<path d="M1294 980 c1 -42 3 -45 29 -45 19 -1 27 4 27 17 0 10 5 18 11 18 14
0 7 42 -8 48 -9 2 -14 -9 -15 -35 -1 -37 -1 -37 -5 -5 -4 32 -26 47 -22 15 4
-40 -4 -45 -11 -8 l-8 40 2 -45z"/>
<path d="M1384 1004 c3 -9 6 -30 6 -46 0 -42 6 -33 13 20 4 33 2 42 -10 42
-10 0 -13 -6 -9 -16z"/>
<path d="M1426 1009 c-2 -8 -6 -26 -9 -40 -3 -22 0 -26 18 -26 20 0 22 3 15
34 -10 40 -18 51 -24 32z"/>
<path d="M1454 1008 c-3 -4 0 -8 5 -8 6 0 11 -16 11 -37 0 -46 6 -40 12 13 4
31 2 41 -9 41 -7 0 -16 -4 -19 -9z"/>
<path d="M1500 975 c0 -33 4 -45 15 -45 18 0 20 16 3 23 -10 4 -10 8 1 15 11
8 11 11 0 16 -11 5 -11 7 -1 12 17 8 15 24 -3 24 -11 0 -15 -12 -15 -45z"/>
<path d="M1607 1014 c-4 -4 -7 -25 -7 -46 0 -27 4 -38 15 -38 18 0 20 16 3 23
-10 4 -9 8 2 16 10 7 11 11 3 11 -7 0 -13 5 -13 10 0 6 6 10 14 10 9 0 16 -12
18 -32 2 -28 7 -33 28 -33 22 1 25 4 22 33 -2 18 1 32 7 32 6 0 11 -16 11 -35
0 -19 5 -35 10 -35 6 0 10 13 10 29 0 16 3 37 6 45 5 13 0 16 -25 14 -28 -2
-31 -6 -31 -35 0 -18 -4 -33 -10 -33 -5 0 -10 14 -10 30 0 17 -4 30 -9 30 -5
0 -16 2 -23 5 -8 3 -17 2 -21 -1z"/>
<path d="M1765 1012 c-3 -3 -5 -22 -5 -43 0 -38 1 -38 36 -37 38 1 55 21 35
41 -6 6 -11 14 -11 19 0 13 25 -2 38 -23 8 -12 9 -18 3 -14 -6 3 -11 -1 -11
-9 0 -9 5 -16 10 -16 16 0 24 30 11 43 -14 14 -15 30 -1 22 6 -3 10 -2 10 4 0
15 -23 26 -28 13 -2 -7 -9 -9 -15 -5 -15 9 -64 13 -72 5z m47 -36 c17 -23 16
-23 -6 -23 -18 0 -23 5 -23 23 0 30 7 30 29 0z"/>
<path d="M1890 975 c0 -33 4 -45 15 -45 18 0 20 16 3 23 -10 4 -10 8 1 15 11
8 11 11 0 16 -11 5 -11 7 -1 12 17 8 15 24 -3 24 -11 0 -15 -12 -15 -45z"/>
<path d="M1954 1006 c-11 -28 1 -71 20 -74 11 -3 16 0 12 7 -4 6 -3 11 3 11 5
0 11 -5 13 -12 9 -26 28 6 27 45 l-2 42 -7 -40 c-7 -40 -7 -40 -9 -6 -1 25 -5
32 -16 27 -8 -3 -15 -1 -15 4 0 15 -20 12 -26 -4z"/>
<path d="M2046 997 c-3 -12 -6 -33 -6 -47 0 -20 2 -22 10 -10 6 9 13 11 18 5
4 -5 22 -10 40 -10 30 0 32 2 32 37 0 43 -20 63 -21 21 -1 -26 -1 -26 -7 -5
-10 35 -27 29 -24 -8 3 -21 0 -30 -7 -26 -6 4 -11 18 -11 31 0 32 -16 40 -24
12z"/>
<path d="M2167 1014 c-11 -11 -8 -74 3 -74 6 0 10 6 11 13 0 6 4 3 9 -8 7 -15
9 -10 9 23 1 24 -3 41 -8 38 -5 -4 -11 -1 -13 5 -2 5 -7 7 -11 3z"/>
<path d="M2259 998 c-1 -17 -2 -19 -6 -5 -2 9 -13 17 -24 17 -15 0 -19 -7 -19
-35 0 -28 4 -35 20 -35 12 0 20 7 21 18 1 11 4 9 9 -8 7 -20 8 -16 9 23 1 46
-8 68 -10 25z"/>
<path d="M2298 1012 c-13 -2 -18 -13 -18 -37 0 -27 5 -34 26 -39 28 -7 46 1
27 12 -6 4 -13 21 -15 37 -2 23 -7 30 -20 27z"/>
<path d="M2361 973 c0 -36 3 -43 9 -28 9 20 9 20 10 0 1 -11 4 -14 7 -7 2 6 9
10 14 6 5 -3 9 14 9 37 0 43 -13 45 -23 4 -4 -15 -5 -13 -6 8 -2 48 -21 29
-20 -20z"/>
<path d="M2424 1007 c-10 -27 0 -72 16 -72 11 0 15 11 15 39 0 40 -20 61 -31
33z"/>
<path d="M2472 978 c-2 -37 2 -48 13 -48 8 0 15 5 15 10 0 6 -4 10 -9 10 -6 0
-12 17 -14 38 -3 34 -4 33 -5 -10z"/>
<path d="M2510 975 c0 -33 4 -45 15 -45 18 0 20 16 3 23 -10 4 -10 8 1 15 11
8 11 11 0 16 -11 5 -11 7 -1 12 17 8 15 24 -3 24 -11 0 -15 -12 -15 -45z"/>
<path d="M2553 1003 c-3 -8 -1 -19 6 -26 14 -14 15 -30 1 -22 -5 3 -10 2 -10
-4 0 -17 22 -24 31 -10 5 8 3 22 -5 34 -12 19 -12 21 5 22 15 1 19 -5 19 -33
0 -20 4 -33 10 -29 5 3 7 19 3 35 -3 19 -1 30 6 30 6 0 11 -13 11 -29 0 -29
24 -49 36 -29 4 7 9 6 15 -3 6 -9 9 -2 9 21 0 41 -16 74 -24 50 -3 -8 -7 -26
-9 -40 -4 -20 -5 -19 -6 8 0 17 -7 33 -13 33 -63 8 -80 6 -85 -8z"/>
<path d="M2700 975 c0 -38 3 -45 20 -45 11 0 20 5 20 10 0 6 -7 10 -15 10 -8
0 -15 5 -15 10 0 6 5 10 11 10 8 0 8 5 -1 15 -10 12 -10 15 4 15 9 0 16 5 16
10 0 6 -9 10 -20 10 -17 0 -20 -7 -20 -45z"/>
<path d="M1559 973 c8 -50 26 -48 28 2 1 33 0 36 -7 15 -8 -24 -8 -24 -9 -2
-1 12 -5 22 -9 22 -5 0 -6 -17 -3 -37z"/>
<path d="M364 897 c-3 -9 -4 -28 -2 -44 4 -32 31 -39 36 -8 3 16 1 17 -7 5 -9
-12 -11 -9 -11 13 0 18 4 26 11 21 7 -4 10 -1 7 6 -6 20 -27 24 -34 7z"/>
<path d="M412 868 c4 -59 28 -63 28 -4 0 35 -4 46 -16 46 -12 0 -14 -9 -12
-42z"/>
<path d="M458 904 c-11 -11 -10 -74 1 -74 5 0 7 10 5 23 -3 16 -1 14 10 -8
l15 -30 0 50 c0 35 -3 44 -8 30 -8 -19 -9 -19 -12 -2 -2 11 -7 15 -11 11z"/>
<path d="M503 893 c-3 -8 -1 -19 6 -26 14 -14 14 -30 0 -21 -7 4 -10 1 -7 -7
5 -15 78 -23 78 -8 0 5 -4 9 -9 9 -5 0 -8 11 -8 25 0 14 3 25 8 25 5 0 9 -10
9 -22 0 -41 13 -50 61 -43 24 4 51 7 60 7 14 -1 15 5 9 35 -13 57 -23 55 -33
-7 -3 -17 -5 -13 -6 13 0 21 -5 36 -9 33 -5 -3 -7 -19 -4 -36 2 -17 0 -30 -6
-30 -6 0 -13 17 -15 38 l-4 37 -3 -45 -3 -45 -6 40 -6 40 -53 1 c-38 1 -55 -3
-59 -13z"/>
<path d="M710 900 c0 -5 5 -10 10 -10 6 0 10 -16 10 -37 0 -46 6 -40 13 15 4
37 3 42 -14 42 -10 0 -19 -4 -19 -10z"/>
<path d="M764 871 c1 -57 25 -69 28 -14 1 37 1 37 5 6 4 -35 22 -46 24 -15 1
11 4 9 9 -8 7 -20 8 -16 7 20 -2 42 -4 45 -29 45 -25 1 -28 -3 -29 -35 l-2
-35 -7 40 -8 40 2 -44z"/>
<path d="M891 883 c-1 -38 8 -65 20 -57 5 3 10 20 10 37 l2 32 6 -35 c5 -31 9
-34 44 -36 20 -2 37 1 37 7 0 5 -4 9 -10 9 -5 0 -10 15 -10 33 0 32 -2 34 -36
34 -29 0 -38 -5 -42 -21 -6 -20 -6 -20 -13 4 -7 23 -7 23 -8 -7z"/>
<path d="M1030 865 l0 -40 68 0 67 0 1 45 c1 39 1 40 -3 8 -2 -21 -9 -38 -15
-38 -6 0 -8 13 -6 30 3 17 1 33 -4 36 -4 3 -8 -11 -8 -30 0 -20 -4 -36 -10
-36 -5 0 -10 16 -10 35 0 19 -4 35 -10 35 -5 0 -10 -16 -10 -35 0 -19 -4 -35
-10 -35 -5 0 -10 15 -10 34 0 29 -4 34 -20 33 -16 -1 -20 -8 -20 -42z"/>
<path d="M1181 870 c0 -25 3 -39 6 -31 5 11 7 11 15 0 6 -9 7 -2 3 21 -11 54
-25 60 -24 10z"/>
<path d="M1211 888 c1 -13 5 -34 9 -48 7 -20 8 -16 9 23 1 26 -3 47 -9 47 -5
0 -10 -10 -9 -22z"/>
<path d="M1262 868 c3 -42 4 -43 38 -43 35 0 35 0 36 45 1 39 1 40 -3 8 -5
-43 -25 -52 -23 -10 3 47 -3 49 -10 2 l-7 -45 -1 43 c-2 31 -6 42 -18 42 -12
0 -14 -9 -12 -42z"/>
<path d="M1390 865 c0 -43 11 -58 25 -35 5 8 11 7 20 0 21 -17 35 -3 35 35 0
38 -14 52 -35 35 -9 -7 -15 -8 -20 0 -14 23 -25 8 -25 -35z"/>
<path d="M1482 868 c-2 -37 2 -48 13 -48 8 0 15 5 15 10 0 6 -4 10 -9 10 -6 0
-12 17 -14 38 -3 34 -4 33 -5 -10z"/>
<path d="M1527 903 c-12 -11 -8 -71 5 -79 6 -4 14 -2 16 4 2 6 10 8 18 5 9 -3
14 2 15 13 1 14 3 13 9 -6 7 -21 8 -19 9 17 1 46 -12 62 -34 43 -11 -9 -15 -9
-15 -1 0 12 -13 15 -23 4z"/>
<path d="M1610 871 c0 -22 5 -43 11 -46 16 -11 25 5 9 16 -13 7 -13 10 -1 18
11 7 11 10 0 15 -11 5 -11 7 -1 12 17 8 15 24 -3 24 -11 0 -15 -11 -15 -39z"/>
<path d="M1651 868 c0 -33 2 -38 9 -23 6 14 9 15 9 5 1 -9 9 -16 19 -17 13 -1
17 6 16 30 -1 37 -15 47 -25 20 -7 -16 -8 -15 -8 5 -1 12 -5 22 -11 22 -5 0
-10 -19 -9 -42z"/>
<path d="M1730 866 l0 -45 38 2 c37 3 37 3 38 47 1 39 1 40 -3 8 -2 -21 -9
-38 -15 -38 -6 0 -8 13 -6 30 3 17 1 33 -4 36 -4 3 -8 -11 -8 -30 0 -25 -4
-36 -15 -36 -8 0 -15 5 -15 10 0 6 5 10 11 10 8 0 8 5 -1 15 -9 10 -9 15 -1
15 6 0 11 5 11 10 0 6 -7 10 -15 10 -11 0 -15 -12 -15 -44z"/>
<path d="M1820 870 c0 -30 3 -40 9 -31 7 11 10 10 15 -5 3 -10 3 -1 0 21 -8
58 -24 68 -24 15z"/>
<path d="M1851 888 c1 -13 5 -34 9 -48 7 -20 8 -16 9 23 1 26 -3 47 -9 47 -5
0 -10 -10 -9 -22z"/>
<path d="M1901 863 c1 -27 4 -38 6 -25 2 12 10 22 16 22 7 0 6 5 -3 11 -11 8
-12 12 -2 16 17 7 15 23 -3 23 -11 0 -15 -11 -14 -47z"/>
<path d="M1942 868 c-2 -37 2 -48 13 -48 11 0 15 11 14 48 l-2 47 -7 -40 -6
-40 -6 40 -5 40 -1 -47z"/>
<path d="M1984 897 c-3 -9 -4 -28 -2 -44 4 -34 32 -38 36 -5 2 12 -1 22 -7 22
-6 0 -8 -7 -5 -15 4 -8 1 -15 -5 -15 -6 0 -11 12 -11 26 0 20 4 25 16 20 10
-4 14 -1 12 6 -6 18 -27 21 -34 5z"/>
<path d="M2056 895 c-8 -22 -8 -70 1 -62 3 4 13 2 20 -5 12 -10 14 -6 8 28 -9
46 -20 62 -29 39z"/>
<path d="M2097 868 c7 -55 13 -61 13 -15 0 21 5 37 11 37 5 0 7 5 4 10 -3 6
-12 10 -20 10 -10 0 -12 -11 -8 -42z"/>
<path d="M2152 868 c2 -32 8 -44 22 -46 11 -3 16 0 12 7 -4 6 -3 11 3 11 5 0
11 -5 13 -12 9 -26 28 6 27 45 l-2 42 -7 -40 c-7 -37 -7 -38 -9 -9 -1 24 -7
33 -23 38 -37 10 -39 8 -36 -36z"/>
<path d="M2244 897 c-10 -27 0 -72 16 -72 11 0 15 11 15 39 0 40 -20 61 -31
33z"/>
<path d="M2304 881 c3 -18 6 -40 6 -47 0 -8 5 -14 11 -14 15 0 5 69 -12 84 -9
8 -10 3 -5 -23z"/>
<path d="M2350 865 c0 -33 4 -45 15 -45 11 0 15 12 15 45 0 33 -4 45 -15 45
-11 0 -15 -12 -15 -45z"/>
<path d="M2392 868 c3 -42 4 -43 38 -43 35 0 35 0 36 45 1 39 1 40 -3 8 -2
-21 -8 -38 -13 -38 -5 0 -11 17 -13 38 l-4 37 -1 -37 c-2 -44 -22 -52 -22 -9
0 17 -5 33 -11 36 -7 5 -9 -8 -7 -37z"/>
<path d="M2481 863 c1 -26 4 -38 6 -25 2 12 9 22 14 22 15 0 7 43 -8 48 -9 3
-13 -10 -12 -45z"/>
<path d="M2524 894 c3 -9 6 -29 6 -44 0 -26 2 -28 23 -21 12 5 32 4 45 0 42
-16 56 9 25 44 -17 19 -17 20 0 14 19 -7 24 8 6 19 -20 12 -35 -14 -21 -36 15
-25 15 -27 -3 -27 -10 0 -15 10 -15 28 0 15 -4 31 -10 34 -5 3 -10 1 -10 -6 0
-10 -3 -10 -12 -1 -18 18 -41 15 -34 -4z"/>
<path d="M1150 754 c0 -25 4 -43 9 -40 5 3 7 16 5 29 -4 16 -1 14 10 -8 l14
-30 0 50 c1 37 -2 45 -8 30 -7 -17 -9 -17 -9 -2 -1 9 -5 17 -11 17 -5 0 -10
-21 -10 -46z"/>
<path d="M1204 760 c1 -33 5 -45 16 -45 11 0 15 12 16 45 1 39 1 40 -3 8 -2
-21 -8 -38 -13 -38 -5 0 -11 17 -13 38 -4 32 -4 31 -3 -8z"/>
<path d="M1252 758 l-2 -48 43 5 c23 3 49 6 58 6 12 0 14 8 10 36 -8 47 -29
54 -33 12 -4 -47 -28 -50 -28 -4 0 24 -4 34 -11 29 -6 -3 -9 -19 -5 -35 4 -21
2 -29 -9 -29 -9 0 -15 14 -18 38 -3 34 -4 33 -5 -10z"/>
<path d="M1391 753 c1 -27 4 -39 6 -28 3 11 12 25 21 31 18 13 9 44 -13 44
-11 0 -15 -11 -14 -47z"/>
<path d="M1445 768 c5 -25 4 -29 -4 -18 -9 12 -11 9 -11 -15 0 -21 3 -26 9
-16 6 9 11 10 15 3 9 -15 36 -3 37 17 1 9 4 6 9 -9 7 -20 8 -16 7 20 -1 33 -6
45 -17 45 -11 0 -14 -9 -12 -34 3 -22 0 -31 -7 -27 -6 4 -11 20 -11 37 0 16
-5 29 -11 29 -7 0 -8 -12 -4 -32z"/>
<path d="M1550 786 c0 -7 -3 -29 -6 -47 -4 -26 -3 -30 5 -19 10 13 12 13 21 0
7 -12 10 -8 10 15 0 23 -3 27 -10 15 -7 -11 -8 -6 -4 18 4 21 3 32 -5 32 -6 0
-11 -6 -11 -14z"/>
<path d="M1584 784 c3 -8 6 -27 6 -40 0 -36 20 -29 21 9 l2 32 6 -35 c9 -54
36 -47 37 10 l2 45 -8 -40 -7 -40 -2 35 c-1 32 -4 36 -32 38 -25 2 -30 -1 -25
-14z"/>
<path d="M1671 752 c1 -38 2 -42 9 -22 7 23 11 23 14 1 0 -5 5 -13 10 -18 5
-4 7 4 4 20 -4 21 0 30 14 38 18 9 18 8 8 -10 -6 -13 -7 -21 -1 -21 12 0 25
39 16 48 -3 4 -22 7 -41 9 l-34 2 1 -47z"/>
</g>
</svg>
